M48
; DRILL file KiCad 10.0.4 date 2026-07-20T11:16:04
; FORMAT={-:-/ absolute / metric / decimal}
; #@! TF.CreationDate,2026-07-20T11:16:04+08:00
; #@! TF.GenerationSoftware,Kicad,Pcbnew,10.0.4
; #@! TF.FileFunction,MixedPlating,1,2
FMAT,2
METRIC
; #@! TA.AperFunction,Plated,PTH,ComponentDrill
T1C0.800
; #@! TA.AperFunction,Plated,PTH,ComponentDrill
T2C0.900
; #@! TA.AperFunction,Plated,PTH,ComponentDrill
T3C1.000
; #@! TA.AperFunction,Plated,PTH,ComponentDrill
T4C1.100
%
G90
G05
T1
X108.0Y-97.55
X108.0Y-100.09
X112.0Y-97.505
X112.0Y-100.045
X116.1Y-97.505
X116.1Y-100.045
X127.5Y-68.0
X127.5Y-70.54
X132.5Y-68.0
X132.5Y-70.54
X137.5Y-68.0
X137.5Y-70.54
X143.0Y-68.0
X143.0Y-70.54
X154.048Y-100.47
X154.053Y-104.47
X156.588Y-100.47
X156.593Y-104.47
X163.906Y-111.927
X163.906Y-114.427
X171.922Y-72.339
X172.243Y-89.51
X172.493Y-106.75
X172.695Y-111.705
X172.695Y-114.205
X174.422Y-72.339
X174.743Y-89.51
X174.993Y-106.75
T2
X106.23Y-106.595
X108.77Y-106.595
X114.23Y-106.595
X116.77Y-106.595
X122.0Y-106.595
X124.54Y-106.595
T3
X106.731Y-68.428
X109.271Y-68.428
X109.28Y-76.5
X109.28Y-79.04
X109.28Y-89.5
X109.28Y-92.04
X111.811Y-68.428
X111.82Y-76.5
X111.82Y-79.04
X111.82Y-89.5
X111.82Y-92.04
X114.351Y-68.428
X114.36Y-76.5
X114.36Y-79.04
X114.36Y-89.5
X114.36Y-92.04
X116.9Y-76.5
X116.9Y-79.04
X116.9Y-89.5
X116.9Y-92.04
X119.44Y-76.5
X119.44Y-79.04
X119.44Y-89.5
X119.44Y-92.04
X121.98Y-76.5
X121.98Y-79.04
X121.98Y-89.5
X121.98Y-92.04
X124.52Y-76.5
X124.52Y-79.04
X124.52Y-89.5
X124.52Y-92.04
X127.06Y-76.5
X127.06Y-79.04
X127.06Y-89.5
X127.06Y-92.04
X129.007Y-98.45
X129.007Y-100.99
X129.007Y-103.53
X129.007Y-106.07
X129.6Y-76.5
X129.6Y-79.04
X129.6Y-89.5
X129.6Y-92.04
X131.547Y-98.45
X131.547Y-100.99
X131.547Y-103.53
X131.547Y-106.07
X132.14Y-76.5
X132.14Y-79.04
X132.14Y-89.5
X132.14Y-92.04
X134.68Y-76.5
X134.68Y-79.04
X134.68Y-89.5
X134.68Y-92.04
X137.22Y-76.5
X137.22Y-79.04
X137.22Y-89.5
X137.22Y-92.04
X139.76Y-76.5
X139.76Y-79.04
X139.76Y-89.5
X139.76Y-92.04
X142.3Y-76.5
X142.3Y-79.04
X142.3Y-89.5
X142.3Y-92.04
X144.84Y-76.5
X144.84Y-79.04
X144.84Y-89.5
X144.84Y-92.04
X145.92Y-112.242
X147.38Y-76.5
X147.38Y-79.04
X147.38Y-89.5
X147.38Y-92.04
X148.46Y-112.242
X149.92Y-76.5
X149.92Y-79.04
X149.92Y-89.5
X149.92Y-92.04
X150.978Y-67.64
X151.0Y-112.242
X152.46Y-76.5
X152.46Y-79.04
X152.46Y-89.5
X152.46Y-92.04
X153.518Y-67.64
X153.54Y-112.242
X155.0Y-76.5
X155.0Y-79.04
X155.0Y-89.5
X155.0Y-92.04
X156.058Y-67.64
X157.54Y-76.5
X157.54Y-79.04
X157.54Y-89.5
X157.54Y-92.04
X158.598Y-67.64
X160.884Y-100.914
X160.884Y-103.454
X160.884Y-105.994
T4
X171.243Y-60.75
X171.243Y-67.25
X171.243Y-78.25
X171.243Y-84.75
X171.493Y-95.5
X171.493Y-102.0
X175.743Y-60.75
X175.743Y-67.25
X175.743Y-78.25
X175.743Y-84.75
X175.993Y-95.5
X175.993Y-102.0
M30
