%TF.GenerationSoftware,KiCad,Pcbnew,10.0.4*%
%TF.CreationDate,2026-07-20T11:16:03+08:00*%
%TF.ProjectId,EnvMonitor,456e764d-6f6e-4697-946f-722e6b696361,rev?*%
%TF.SameCoordinates,Original*%
%TF.FileFunction,AssemblyDrawing,Top*%
%FSLAX46Y46*%
G04 Gerber Fmt 4.6, Leading zero omitted, Abs format (unit mm)*
G04 Created by KiCad (PCBNEW 10.0.4) date 2026-07-20 11:16:03*
%MOMM*%
%LPD*%
G01*
G04 APERTURE LIST*
%ADD10C,0.150000*%
%ADD11C,0.120000*%
%ADD12C,0.090000*%
%ADD13C,0.100000*%
G04 APERTURE END LIST*
D10*
X135584819Y-69865238D02*
X135584819Y-70436666D01*
X135584819Y-70150952D02*
X134584819Y-70150952D01*
X134584819Y-70150952D02*
X134727676Y-70246190D01*
X134727676Y-70246190D02*
X134822914Y-70341428D01*
X134822914Y-70341428D02*
X134870533Y-70436666D01*
X134584819Y-69246190D02*
X134584819Y-69150952D01*
X134584819Y-69150952D02*
X134632438Y-69055714D01*
X134632438Y-69055714D02*
X134680057Y-69008095D01*
X134680057Y-69008095D02*
X134775295Y-68960476D01*
X134775295Y-68960476D02*
X134965771Y-68912857D01*
X134965771Y-68912857D02*
X135203866Y-68912857D01*
X135203866Y-68912857D02*
X135394342Y-68960476D01*
X135394342Y-68960476D02*
X135489580Y-69008095D01*
X135489580Y-69008095D02*
X135537200Y-69055714D01*
X135537200Y-69055714D02*
X135584819Y-69150952D01*
X135584819Y-69150952D02*
X135584819Y-69246190D01*
X135584819Y-69246190D02*
X135537200Y-69341428D01*
X135537200Y-69341428D02*
X135489580Y-69389047D01*
X135489580Y-69389047D02*
X135394342Y-69436666D01*
X135394342Y-69436666D02*
X135203866Y-69484285D01*
X135203866Y-69484285D02*
X134965771Y-69484285D01*
X134965771Y-69484285D02*
X134775295Y-69436666D01*
X134775295Y-69436666D02*
X134680057Y-69389047D01*
X134680057Y-69389047D02*
X134632438Y-69341428D01*
X134632438Y-69341428D02*
X134584819Y-69246190D01*
X135584819Y-68484285D02*
X134584819Y-68484285D01*
X135203866Y-68389047D02*
X135584819Y-68103333D01*
X134918152Y-68103333D02*
X135299104Y-68484285D01*
X140324819Y-69436666D02*
X139848628Y-69769999D01*
X140324819Y-70008094D02*
X139324819Y-70008094D01*
X139324819Y-70008094D02*
X139324819Y-69627142D01*
X139324819Y-69627142D02*
X139372438Y-69531904D01*
X139372438Y-69531904D02*
X139420057Y-69484285D01*
X139420057Y-69484285D02*
X139515295Y-69436666D01*
X139515295Y-69436666D02*
X139658152Y-69436666D01*
X139658152Y-69436666D02*
X139753390Y-69484285D01*
X139753390Y-69484285D02*
X139801009Y-69531904D01*
X139801009Y-69531904D02*
X139848628Y-69627142D01*
X139848628Y-69627142D02*
X139848628Y-70008094D01*
X139324819Y-69103332D02*
X139324819Y-68436666D01*
X139324819Y-68436666D02*
X140324819Y-68865237D01*
X130584819Y-69865238D02*
X130584819Y-70436666D01*
X130584819Y-70150952D02*
X129584819Y-70150952D01*
X129584819Y-70150952D02*
X129727676Y-70246190D01*
X129727676Y-70246190D02*
X129822914Y-70341428D01*
X129822914Y-70341428D02*
X129870533Y-70436666D01*
X129584819Y-69246190D02*
X129584819Y-69150952D01*
X129584819Y-69150952D02*
X129632438Y-69055714D01*
X129632438Y-69055714D02*
X129680057Y-69008095D01*
X129680057Y-69008095D02*
X129775295Y-68960476D01*
X129775295Y-68960476D02*
X129965771Y-68912857D01*
X129965771Y-68912857D02*
X130203866Y-68912857D01*
X130203866Y-68912857D02*
X130394342Y-68960476D01*
X130394342Y-68960476D02*
X130489580Y-69008095D01*
X130489580Y-69008095D02*
X130537200Y-69055714D01*
X130537200Y-69055714D02*
X130584819Y-69150952D01*
X130584819Y-69150952D02*
X130584819Y-69246190D01*
X130584819Y-69246190D02*
X130537200Y-69341428D01*
X130537200Y-69341428D02*
X130489580Y-69389047D01*
X130489580Y-69389047D02*
X130394342Y-69436666D01*
X130394342Y-69436666D02*
X130203866Y-69484285D01*
X130203866Y-69484285D02*
X129965771Y-69484285D01*
X129965771Y-69484285D02*
X129775295Y-69436666D01*
X129775295Y-69436666D02*
X129680057Y-69389047D01*
X129680057Y-69389047D02*
X129632438Y-69341428D01*
X129632438Y-69341428D02*
X129584819Y-69246190D01*
X130584819Y-68484285D02*
X129584819Y-68484285D01*
X130203866Y-68389047D02*
X130584819Y-68103333D01*
X129918152Y-68103333D02*
X130299104Y-68484285D01*
X135324819Y-69436666D02*
X134848628Y-69769999D01*
X135324819Y-70008094D02*
X134324819Y-70008094D01*
X134324819Y-70008094D02*
X134324819Y-69627142D01*
X134324819Y-69627142D02*
X134372438Y-69531904D01*
X134372438Y-69531904D02*
X134420057Y-69484285D01*
X134420057Y-69484285D02*
X134515295Y-69436666D01*
X134515295Y-69436666D02*
X134658152Y-69436666D01*
X134658152Y-69436666D02*
X134753390Y-69484285D01*
X134753390Y-69484285D02*
X134801009Y-69531904D01*
X134801009Y-69531904D02*
X134848628Y-69627142D01*
X134848628Y-69627142D02*
X134848628Y-70008094D01*
X134753390Y-68865237D02*
X134705771Y-68960475D01*
X134705771Y-68960475D02*
X134658152Y-69008094D01*
X134658152Y-69008094D02*
X134562914Y-69055713D01*
X134562914Y-69055713D02*
X134515295Y-69055713D01*
X134515295Y-69055713D02*
X134420057Y-69008094D01*
X134420057Y-69008094D02*
X134372438Y-68960475D01*
X134372438Y-68960475D02*
X134324819Y-68865237D01*
X134324819Y-68865237D02*
X134324819Y-68674761D01*
X134324819Y-68674761D02*
X134372438Y-68579523D01*
X134372438Y-68579523D02*
X134420057Y-68531904D01*
X134420057Y-68531904D02*
X134515295Y-68484285D01*
X134515295Y-68484285D02*
X134562914Y-68484285D01*
X134562914Y-68484285D02*
X134658152Y-68531904D01*
X134658152Y-68531904D02*
X134705771Y-68579523D01*
X134705771Y-68579523D02*
X134753390Y-68674761D01*
X134753390Y-68674761D02*
X134753390Y-68865237D01*
X134753390Y-68865237D02*
X134801009Y-68960475D01*
X134801009Y-68960475D02*
X134848628Y-69008094D01*
X134848628Y-69008094D02*
X134943866Y-69055713D01*
X134943866Y-69055713D02*
X135134342Y-69055713D01*
X135134342Y-69055713D02*
X135229580Y-69008094D01*
X135229580Y-69008094D02*
X135277200Y-68960475D01*
X135277200Y-68960475D02*
X135324819Y-68865237D01*
X135324819Y-68865237D02*
X135324819Y-68674761D01*
X135324819Y-68674761D02*
X135277200Y-68579523D01*
X135277200Y-68579523D02*
X135229580Y-68531904D01*
X135229580Y-68531904D02*
X135134342Y-68484285D01*
X135134342Y-68484285D02*
X134943866Y-68484285D01*
X134943866Y-68484285D02*
X134848628Y-68531904D01*
X134848628Y-68531904D02*
X134801009Y-68579523D01*
X134801009Y-68579523D02*
X134753390Y-68674761D01*
X113738095Y-111954819D02*
X113261905Y-111954819D01*
X113261905Y-111954819D02*
X113261905Y-110954819D01*
X114071429Y-111431009D02*
X114404762Y-111431009D01*
X114547619Y-111954819D02*
X114071429Y-111954819D01*
X114071429Y-111954819D02*
X114071429Y-110954819D01*
X114071429Y-110954819D02*
X114547619Y-110954819D01*
X114976191Y-111954819D02*
X114976191Y-110954819D01*
X114976191Y-110954819D02*
X115214286Y-110954819D01*
X115214286Y-110954819D02*
X115357143Y-111002438D01*
X115357143Y-111002438D02*
X115452381Y-111097676D01*
X115452381Y-111097676D02*
X115500000Y-111192914D01*
X115500000Y-111192914D02*
X115547619Y-111383390D01*
X115547619Y-111383390D02*
X115547619Y-111526247D01*
X115547619Y-111526247D02*
X115500000Y-111716723D01*
X115500000Y-111716723D02*
X115452381Y-111811961D01*
X115452381Y-111811961D02*
X115357143Y-111907200D01*
X115357143Y-111907200D02*
X115214286Y-111954819D01*
X115214286Y-111954819D02*
X114976191Y-111954819D01*
X115738096Y-112050057D02*
X116500000Y-112050057D01*
X116595239Y-111145295D02*
X117833334Y-111145295D01*
X116690477Y-110954819D02*
X117738096Y-110954819D01*
X116785715Y-111716723D02*
X117690477Y-111716723D01*
X116785715Y-111526247D02*
X117690477Y-111526247D01*
X116785715Y-111335771D02*
X116785715Y-111716723D01*
X116976191Y-110811961D02*
X116976191Y-111145295D01*
X117023810Y-111811961D02*
X116595239Y-111954819D01*
X117214286Y-111145295D02*
X117214286Y-111716723D01*
X117404762Y-111811961D02*
X117833334Y-111954819D01*
X117452381Y-110811961D02*
X117452381Y-111145295D01*
X116785715Y-111335771D02*
X117690477Y-111335771D01*
X117690477Y-111335771D02*
X117690477Y-111716723D01*
D11*
X114909524Y-106958855D02*
X114909524Y-106158855D01*
X114909524Y-106158855D02*
X115100000Y-106158855D01*
X115100000Y-106158855D02*
X115214286Y-106196950D01*
X115214286Y-106196950D02*
X115290476Y-106273140D01*
X115290476Y-106273140D02*
X115328571Y-106349331D01*
X115328571Y-106349331D02*
X115366667Y-106501712D01*
X115366667Y-106501712D02*
X115366667Y-106615998D01*
X115366667Y-106615998D02*
X115328571Y-106768379D01*
X115328571Y-106768379D02*
X115290476Y-106844569D01*
X115290476Y-106844569D02*
X115214286Y-106920760D01*
X115214286Y-106920760D02*
X115100000Y-106958855D01*
X115100000Y-106958855D02*
X114909524Y-106958855D01*
X115633333Y-106158855D02*
X116128571Y-106158855D01*
X116128571Y-106158855D02*
X115861905Y-106463617D01*
X115861905Y-106463617D02*
X115976190Y-106463617D01*
X115976190Y-106463617D02*
X116052381Y-106501712D01*
X116052381Y-106501712D02*
X116090476Y-106539807D01*
X116090476Y-106539807D02*
X116128571Y-106615998D01*
X116128571Y-106615998D02*
X116128571Y-106806474D01*
X116128571Y-106806474D02*
X116090476Y-106882664D01*
X116090476Y-106882664D02*
X116052381Y-106920760D01*
X116052381Y-106920760D02*
X115976190Y-106958855D01*
X115976190Y-106958855D02*
X115747619Y-106958855D01*
X115747619Y-106958855D02*
X115671428Y-106920760D01*
X115671428Y-106920760D02*
X115633333Y-106882664D01*
D10*
X158788852Y-105437371D02*
X159455519Y-105437371D01*
X158407900Y-105675466D02*
X159122185Y-105913561D01*
X159122185Y-105913561D02*
X159122185Y-105294514D01*
X159360280Y-104913561D02*
X159407900Y-104865942D01*
X159407900Y-104865942D02*
X159455519Y-104913561D01*
X159455519Y-104913561D02*
X159407900Y-104961180D01*
X159407900Y-104961180D02*
X159360280Y-104913561D01*
X159360280Y-104913561D02*
X159455519Y-104913561D01*
X158455519Y-104532609D02*
X158455519Y-103865943D01*
X158455519Y-103865943D02*
X159455519Y-104294514D01*
X159455519Y-103484990D02*
X158455519Y-103484990D01*
X159074566Y-103389752D02*
X159455519Y-103104038D01*
X158788852Y-103104038D02*
X159169804Y-103484990D01*
X161106519Y-104573866D02*
X160630328Y-104907199D01*
X161106519Y-105145294D02*
X160106519Y-105145294D01*
X160106519Y-105145294D02*
X160106519Y-104764342D01*
X160106519Y-104764342D02*
X160154138Y-104669104D01*
X160154138Y-104669104D02*
X160201757Y-104621485D01*
X160201757Y-104621485D02*
X160296995Y-104573866D01*
X160296995Y-104573866D02*
X160439852Y-104573866D01*
X160439852Y-104573866D02*
X160535090Y-104621485D01*
X160535090Y-104621485D02*
X160582709Y-104669104D01*
X160582709Y-104669104D02*
X160630328Y-104764342D01*
X160630328Y-104764342D02*
X160630328Y-105145294D01*
X160439852Y-103716723D02*
X161106519Y-103716723D01*
X160058900Y-103954818D02*
X160773185Y-104192913D01*
X160773185Y-104192913D02*
X160773185Y-103573866D01*
X171624180Y-70544019D02*
X171052752Y-70544019D01*
X171338466Y-70544019D02*
X171338466Y-69544019D01*
X171338466Y-69544019D02*
X171243228Y-69686876D01*
X171243228Y-69686876D02*
X171147990Y-69782114D01*
X171147990Y-69782114D02*
X171052752Y-69829733D01*
X172243228Y-69544019D02*
X172338466Y-69544019D01*
X172338466Y-69544019D02*
X172433704Y-69591638D01*
X172433704Y-69591638D02*
X172481323Y-69639257D01*
X172481323Y-69639257D02*
X172528942Y-69734495D01*
X172528942Y-69734495D02*
X172576561Y-69924971D01*
X172576561Y-69924971D02*
X172576561Y-70163066D01*
X172576561Y-70163066D02*
X172528942Y-70353542D01*
X172528942Y-70353542D02*
X172481323Y-70448780D01*
X172481323Y-70448780D02*
X172433704Y-70496400D01*
X172433704Y-70496400D02*
X172338466Y-70544019D01*
X172338466Y-70544019D02*
X172243228Y-70544019D01*
X172243228Y-70544019D02*
X172147990Y-70496400D01*
X172147990Y-70496400D02*
X172100371Y-70448780D01*
X172100371Y-70448780D02*
X172052752Y-70353542D01*
X172052752Y-70353542D02*
X172005133Y-70163066D01*
X172005133Y-70163066D02*
X172005133Y-69924971D01*
X172005133Y-69924971D02*
X172052752Y-69734495D01*
X172052752Y-69734495D02*
X172100371Y-69639257D01*
X172100371Y-69639257D02*
X172147990Y-69591638D01*
X172147990Y-69591638D02*
X172243228Y-69544019D01*
X173195609Y-69544019D02*
X173290847Y-69544019D01*
X173290847Y-69544019D02*
X173386085Y-69591638D01*
X173386085Y-69591638D02*
X173433704Y-69639257D01*
X173433704Y-69639257D02*
X173481323Y-69734495D01*
X173481323Y-69734495D02*
X173528942Y-69924971D01*
X173528942Y-69924971D02*
X173528942Y-70163066D01*
X173528942Y-70163066D02*
X173481323Y-70353542D01*
X173481323Y-70353542D02*
X173433704Y-70448780D01*
X173433704Y-70448780D02*
X173386085Y-70496400D01*
X173386085Y-70496400D02*
X173290847Y-70544019D01*
X173290847Y-70544019D02*
X173195609Y-70544019D01*
X173195609Y-70544019D02*
X173100371Y-70496400D01*
X173100371Y-70496400D02*
X173052752Y-70448780D01*
X173052752Y-70448780D02*
X173005133Y-70353542D01*
X173005133Y-70353542D02*
X172957514Y-70163066D01*
X172957514Y-70163066D02*
X172957514Y-69924971D01*
X172957514Y-69924971D02*
X173005133Y-69734495D01*
X173005133Y-69734495D02*
X173052752Y-69639257D01*
X173052752Y-69639257D02*
X173100371Y-69591638D01*
X173100371Y-69591638D02*
X173195609Y-69544019D01*
X173957514Y-69877352D02*
X173957514Y-70544019D01*
X173957514Y-69972590D02*
X174005133Y-69924971D01*
X174005133Y-69924971D02*
X174100371Y-69877352D01*
X174100371Y-69877352D02*
X174243228Y-69877352D01*
X174243228Y-69877352D02*
X174338466Y-69924971D01*
X174338466Y-69924971D02*
X174386085Y-70020209D01*
X174386085Y-70020209D02*
X174386085Y-70544019D01*
X175195609Y-70020209D02*
X174862276Y-70020209D01*
X174862276Y-70544019D02*
X174862276Y-69544019D01*
X174862276Y-69544019D02*
X175338466Y-69544019D01*
D12*
X172786085Y-72754948D02*
X172757513Y-72783520D01*
X172757513Y-72783520D02*
X172671799Y-72812091D01*
X172671799Y-72812091D02*
X172614656Y-72812091D01*
X172614656Y-72812091D02*
X172528942Y-72783520D01*
X172528942Y-72783520D02*
X172471799Y-72726377D01*
X172471799Y-72726377D02*
X172443228Y-72669234D01*
X172443228Y-72669234D02*
X172414656Y-72554948D01*
X172414656Y-72554948D02*
X172414656Y-72469234D01*
X172414656Y-72469234D02*
X172443228Y-72354948D01*
X172443228Y-72354948D02*
X172471799Y-72297805D01*
X172471799Y-72297805D02*
X172528942Y-72240662D01*
X172528942Y-72240662D02*
X172614656Y-72212091D01*
X172614656Y-72212091D02*
X172671799Y-72212091D01*
X172671799Y-72212091D02*
X172757513Y-72240662D01*
X172757513Y-72240662D02*
X172786085Y-72269234D01*
X173014656Y-72269234D02*
X173043228Y-72240662D01*
X173043228Y-72240662D02*
X173100371Y-72212091D01*
X173100371Y-72212091D02*
X173243228Y-72212091D01*
X173243228Y-72212091D02*
X173300371Y-72240662D01*
X173300371Y-72240662D02*
X173328942Y-72269234D01*
X173328942Y-72269234D02*
X173357513Y-72326377D01*
X173357513Y-72326377D02*
X173357513Y-72383520D01*
X173357513Y-72383520D02*
X173328942Y-72469234D01*
X173328942Y-72469234D02*
X172986085Y-72812091D01*
X172986085Y-72812091D02*
X173357513Y-72812091D01*
X173728942Y-72212091D02*
X173786085Y-72212091D01*
X173786085Y-72212091D02*
X173843228Y-72240662D01*
X173843228Y-72240662D02*
X173871800Y-72269234D01*
X173871800Y-72269234D02*
X173900371Y-72326377D01*
X173900371Y-72326377D02*
X173928942Y-72440662D01*
X173928942Y-72440662D02*
X173928942Y-72583520D01*
X173928942Y-72583520D02*
X173900371Y-72697805D01*
X173900371Y-72697805D02*
X173871800Y-72754948D01*
X173871800Y-72754948D02*
X173843228Y-72783520D01*
X173843228Y-72783520D02*
X173786085Y-72812091D01*
X173786085Y-72812091D02*
X173728942Y-72812091D01*
X173728942Y-72812091D02*
X173671800Y-72783520D01*
X173671800Y-72783520D02*
X173643228Y-72754948D01*
X173643228Y-72754948D02*
X173614657Y-72697805D01*
X173614657Y-72697805D02*
X173586085Y-72583520D01*
X173586085Y-72583520D02*
X173586085Y-72440662D01*
X173586085Y-72440662D02*
X173614657Y-72326377D01*
X173614657Y-72326377D02*
X173643228Y-72269234D01*
X173643228Y-72269234D02*
X173671800Y-72240662D01*
X173671800Y-72240662D02*
X173728942Y-72212091D01*
D10*
X169497419Y-66119047D02*
X168497419Y-66119047D01*
X169497419Y-65547619D02*
X168925990Y-65976190D01*
X168497419Y-65547619D02*
X169068847Y-66119047D01*
X168973609Y-65119047D02*
X168973609Y-64785714D01*
X169497419Y-64642857D02*
X169497419Y-65119047D01*
X169497419Y-65119047D02*
X168497419Y-65119047D01*
X168497419Y-65119047D02*
X168497419Y-64642857D01*
X169021228Y-64023809D02*
X169497419Y-64023809D01*
X168497419Y-64357142D02*
X169021228Y-64023809D01*
X169021228Y-64023809D02*
X168497419Y-63690476D01*
X168497419Y-63452380D02*
X168497419Y-62833333D01*
X168497419Y-62833333D02*
X168878371Y-63166666D01*
X168878371Y-63166666D02*
X168878371Y-63023809D01*
X168878371Y-63023809D02*
X168925990Y-62928571D01*
X168925990Y-62928571D02*
X168973609Y-62880952D01*
X168973609Y-62880952D02*
X169068847Y-62833333D01*
X169068847Y-62833333D02*
X169306942Y-62833333D01*
X169306942Y-62833333D02*
X169402180Y-62880952D01*
X169402180Y-62880952D02*
X169449800Y-62928571D01*
X169449800Y-62928571D02*
X169497419Y-63023809D01*
X169497419Y-63023809D02*
X169497419Y-63309523D01*
X169497419Y-63309523D02*
X169449800Y-63404761D01*
X169449800Y-63404761D02*
X169402180Y-63452380D01*
X173899800Y-65333332D02*
X173947419Y-65190475D01*
X173947419Y-65190475D02*
X173947419Y-64952380D01*
X173947419Y-64952380D02*
X173899800Y-64857142D01*
X173899800Y-64857142D02*
X173852180Y-64809523D01*
X173852180Y-64809523D02*
X173756942Y-64761904D01*
X173756942Y-64761904D02*
X173661704Y-64761904D01*
X173661704Y-64761904D02*
X173566466Y-64809523D01*
X173566466Y-64809523D02*
X173518847Y-64857142D01*
X173518847Y-64857142D02*
X173471228Y-64952380D01*
X173471228Y-64952380D02*
X173423609Y-65142856D01*
X173423609Y-65142856D02*
X173375990Y-65238094D01*
X173375990Y-65238094D02*
X173328371Y-65285713D01*
X173328371Y-65285713D02*
X173233133Y-65333332D01*
X173233133Y-65333332D02*
X173137895Y-65333332D01*
X173137895Y-65333332D02*
X173042657Y-65285713D01*
X173042657Y-65285713D02*
X172995038Y-65238094D01*
X172995038Y-65238094D02*
X172947419Y-65142856D01*
X172947419Y-65142856D02*
X172947419Y-64904761D01*
X172947419Y-64904761D02*
X172995038Y-64761904D01*
X172947419Y-64428570D02*
X173947419Y-64190475D01*
X173947419Y-64190475D02*
X173233133Y-63999999D01*
X173233133Y-63999999D02*
X173947419Y-63809523D01*
X173947419Y-63809523D02*
X172947419Y-63571428D01*
X173280752Y-62761904D02*
X173947419Y-62761904D01*
X172899800Y-62999999D02*
X173614085Y-63238094D01*
X173614085Y-63238094D02*
X173614085Y-62619047D01*
X158738052Y-101297171D02*
X159404719Y-101297171D01*
X158357100Y-101535266D02*
X159071385Y-101773361D01*
X159071385Y-101773361D02*
X159071385Y-101154314D01*
X159309480Y-100773361D02*
X159357100Y-100725742D01*
X159357100Y-100725742D02*
X159404719Y-100773361D01*
X159404719Y-100773361D02*
X159357100Y-100820980D01*
X159357100Y-100820980D02*
X159309480Y-100773361D01*
X159309480Y-100773361D02*
X159404719Y-100773361D01*
X158404719Y-100392409D02*
X158404719Y-99725743D01*
X158404719Y-99725743D02*
X159404719Y-100154314D01*
X159404719Y-99344790D02*
X158404719Y-99344790D01*
X159023766Y-99249552D02*
X159404719Y-98963838D01*
X158738052Y-98963838D02*
X159119004Y-99344790D01*
X160979519Y-100967066D02*
X160503328Y-101300399D01*
X160979519Y-101538494D02*
X159979519Y-101538494D01*
X159979519Y-101538494D02*
X159979519Y-101157542D01*
X159979519Y-101157542D02*
X160027138Y-101062304D01*
X160027138Y-101062304D02*
X160074757Y-101014685D01*
X160074757Y-101014685D02*
X160169995Y-100967066D01*
X160169995Y-100967066D02*
X160312852Y-100967066D01*
X160312852Y-100967066D02*
X160408090Y-101014685D01*
X160408090Y-101014685D02*
X160455709Y-101062304D01*
X160455709Y-101062304D02*
X160503328Y-101157542D01*
X160503328Y-101157542D02*
X160503328Y-101538494D01*
X159979519Y-100062304D02*
X159979519Y-100538494D01*
X159979519Y-100538494D02*
X160455709Y-100586113D01*
X160455709Y-100586113D02*
X160408090Y-100538494D01*
X160408090Y-100538494D02*
X160360471Y-100443256D01*
X160360471Y-100443256D02*
X160360471Y-100205161D01*
X160360471Y-100205161D02*
X160408090Y-100109923D01*
X160408090Y-100109923D02*
X160455709Y-100062304D01*
X160455709Y-100062304D02*
X160550947Y-100014685D01*
X160550947Y-100014685D02*
X160789042Y-100014685D01*
X160789042Y-100014685D02*
X160884280Y-100062304D01*
X160884280Y-100062304D02*
X160931900Y-100109923D01*
X160931900Y-100109923D02*
X160979519Y-100205161D01*
X160979519Y-100205161D02*
X160979519Y-100443256D01*
X160979519Y-100443256D02*
X160931900Y-100538494D01*
X160931900Y-100538494D02*
X160884280Y-100586113D01*
X160719580Y-81833334D02*
X160767200Y-81880953D01*
X160767200Y-81880953D02*
X160814819Y-82023810D01*
X160814819Y-82023810D02*
X160814819Y-82119048D01*
X160814819Y-82119048D02*
X160767200Y-82261905D01*
X160767200Y-82261905D02*
X160671961Y-82357143D01*
X160671961Y-82357143D02*
X160576723Y-82404762D01*
X160576723Y-82404762D02*
X160386247Y-82452381D01*
X160386247Y-82452381D02*
X160243390Y-82452381D01*
X160243390Y-82452381D02*
X160052914Y-82404762D01*
X160052914Y-82404762D02*
X159957676Y-82357143D01*
X159957676Y-82357143D02*
X159862438Y-82261905D01*
X159862438Y-82261905D02*
X159814819Y-82119048D01*
X159814819Y-82119048D02*
X159814819Y-82023810D01*
X159814819Y-82023810D02*
X159862438Y-81880953D01*
X159862438Y-81880953D02*
X159910057Y-81833334D01*
X160814819Y-81261905D02*
X160767200Y-81357143D01*
X160767200Y-81357143D02*
X160719580Y-81404762D01*
X160719580Y-81404762D02*
X160624342Y-81452381D01*
X160624342Y-81452381D02*
X160338628Y-81452381D01*
X160338628Y-81452381D02*
X160243390Y-81404762D01*
X160243390Y-81404762D02*
X160195771Y-81357143D01*
X160195771Y-81357143D02*
X160148152Y-81261905D01*
X160148152Y-81261905D02*
X160148152Y-81119048D01*
X160148152Y-81119048D02*
X160195771Y-81023810D01*
X160195771Y-81023810D02*
X160243390Y-80976191D01*
X160243390Y-80976191D02*
X160338628Y-80928572D01*
X160338628Y-80928572D02*
X160624342Y-80928572D01*
X160624342Y-80928572D02*
X160719580Y-80976191D01*
X160719580Y-80976191D02*
X160767200Y-81023810D01*
X160767200Y-81023810D02*
X160814819Y-81119048D01*
X160814819Y-81119048D02*
X160814819Y-81261905D01*
X160814819Y-80500000D02*
X160148152Y-80500000D01*
X160338628Y-80500000D02*
X160243390Y-80452381D01*
X160243390Y-80452381D02*
X160195771Y-80404762D01*
X160195771Y-80404762D02*
X160148152Y-80309524D01*
X160148152Y-80309524D02*
X160148152Y-80214286D01*
X160767200Y-79500000D02*
X160814819Y-79595238D01*
X160814819Y-79595238D02*
X160814819Y-79785714D01*
X160814819Y-79785714D02*
X160767200Y-79880952D01*
X160767200Y-79880952D02*
X160671961Y-79928571D01*
X160671961Y-79928571D02*
X160291009Y-79928571D01*
X160291009Y-79928571D02*
X160195771Y-79880952D01*
X160195771Y-79880952D02*
X160148152Y-79785714D01*
X160148152Y-79785714D02*
X160148152Y-79595238D01*
X160148152Y-79595238D02*
X160195771Y-79500000D01*
X160195771Y-79500000D02*
X160291009Y-79452381D01*
X160291009Y-79452381D02*
X160386247Y-79452381D01*
X160386247Y-79452381D02*
X160481485Y-79928571D01*
X160291009Y-78690476D02*
X160338628Y-78547619D01*
X160338628Y-78547619D02*
X160386247Y-78500000D01*
X160386247Y-78500000D02*
X160481485Y-78452381D01*
X160481485Y-78452381D02*
X160624342Y-78452381D01*
X160624342Y-78452381D02*
X160719580Y-78500000D01*
X160719580Y-78500000D02*
X160767200Y-78547619D01*
X160767200Y-78547619D02*
X160814819Y-78642857D01*
X160814819Y-78642857D02*
X160814819Y-79023809D01*
X160814819Y-79023809D02*
X159814819Y-79023809D01*
X159814819Y-79023809D02*
X159814819Y-78690476D01*
X159814819Y-78690476D02*
X159862438Y-78595238D01*
X159862438Y-78595238D02*
X159910057Y-78547619D01*
X159910057Y-78547619D02*
X160005295Y-78500000D01*
X160005295Y-78500000D02*
X160100533Y-78500000D01*
X160100533Y-78500000D02*
X160195771Y-78547619D01*
X160195771Y-78547619D02*
X160243390Y-78595238D01*
X160243390Y-78595238D02*
X160291009Y-78690476D01*
X160291009Y-78690476D02*
X160291009Y-79023809D01*
X160814819Y-77880952D02*
X160767200Y-77976190D01*
X160767200Y-77976190D02*
X160719580Y-78023809D01*
X160719580Y-78023809D02*
X160624342Y-78071428D01*
X160624342Y-78071428D02*
X160338628Y-78071428D01*
X160338628Y-78071428D02*
X160243390Y-78023809D01*
X160243390Y-78023809D02*
X160195771Y-77976190D01*
X160195771Y-77976190D02*
X160148152Y-77880952D01*
X160148152Y-77880952D02*
X160148152Y-77738095D01*
X160148152Y-77738095D02*
X160195771Y-77642857D01*
X160195771Y-77642857D02*
X160243390Y-77595238D01*
X160243390Y-77595238D02*
X160338628Y-77547619D01*
X160338628Y-77547619D02*
X160624342Y-77547619D01*
X160624342Y-77547619D02*
X160719580Y-77595238D01*
X160719580Y-77595238D02*
X160767200Y-77642857D01*
X160767200Y-77642857D02*
X160814819Y-77738095D01*
X160814819Y-77738095D02*
X160814819Y-77880952D01*
X160814819Y-76690476D02*
X160291009Y-76690476D01*
X160291009Y-76690476D02*
X160195771Y-76738095D01*
X160195771Y-76738095D02*
X160148152Y-76833333D01*
X160148152Y-76833333D02*
X160148152Y-77023809D01*
X160148152Y-77023809D02*
X160195771Y-77119047D01*
X160767200Y-76690476D02*
X160814819Y-76785714D01*
X160814819Y-76785714D02*
X160814819Y-77023809D01*
X160814819Y-77023809D02*
X160767200Y-77119047D01*
X160767200Y-77119047D02*
X160671961Y-77166666D01*
X160671961Y-77166666D02*
X160576723Y-77166666D01*
X160576723Y-77166666D02*
X160481485Y-77119047D01*
X160481485Y-77119047D02*
X160433866Y-77023809D01*
X160433866Y-77023809D02*
X160433866Y-76785714D01*
X160433866Y-76785714D02*
X160386247Y-76690476D01*
X160814819Y-76214285D02*
X160148152Y-76214285D01*
X160338628Y-76214285D02*
X160243390Y-76166666D01*
X160243390Y-76166666D02*
X160195771Y-76119047D01*
X160195771Y-76119047D02*
X160148152Y-76023809D01*
X160148152Y-76023809D02*
X160148152Y-75928571D01*
X160814819Y-75166666D02*
X159814819Y-75166666D01*
X160767200Y-75166666D02*
X160814819Y-75261904D01*
X160814819Y-75261904D02*
X160814819Y-75452380D01*
X160814819Y-75452380D02*
X160767200Y-75547618D01*
X160767200Y-75547618D02*
X160719580Y-75595237D01*
X160719580Y-75595237D02*
X160624342Y-75642856D01*
X160624342Y-75642856D02*
X160338628Y-75642856D01*
X160338628Y-75642856D02*
X160243390Y-75595237D01*
X160243390Y-75595237D02*
X160195771Y-75547618D01*
X160195771Y-75547618D02*
X160148152Y-75452380D01*
X160148152Y-75452380D02*
X160148152Y-75261904D01*
X160148152Y-75261904D02*
X160195771Y-75166666D01*
X160910057Y-74928571D02*
X160910057Y-74166666D01*
X160814819Y-73452380D02*
X160814819Y-73928570D01*
X160814819Y-73928570D02*
X159814819Y-73928570D01*
X124264819Y-96086904D02*
X123264819Y-96086904D01*
X123741009Y-96086904D02*
X123741009Y-95515476D01*
X124264819Y-95515476D02*
X123264819Y-95515476D01*
X124264819Y-94515476D02*
X124264819Y-95086904D01*
X124264819Y-94801190D02*
X123264819Y-94801190D01*
X123264819Y-94801190D02*
X123407676Y-94896428D01*
X123407676Y-94896428D02*
X123502914Y-94991666D01*
X123502914Y-94991666D02*
X123550533Y-95086904D01*
X177149419Y-116431581D02*
X177149419Y-117003009D01*
X177149419Y-116717295D02*
X176149419Y-116717295D01*
X176149419Y-116717295D02*
X176292276Y-116812533D01*
X176292276Y-116812533D02*
X176387514Y-116907771D01*
X176387514Y-116907771D02*
X176435133Y-117003009D01*
X176149419Y-115812533D02*
X176149419Y-115717295D01*
X176149419Y-115717295D02*
X176197038Y-115622057D01*
X176197038Y-115622057D02*
X176244657Y-115574438D01*
X176244657Y-115574438D02*
X176339895Y-115526819D01*
X176339895Y-115526819D02*
X176530371Y-115479200D01*
X176530371Y-115479200D02*
X176768466Y-115479200D01*
X176768466Y-115479200D02*
X176958942Y-115526819D01*
X176958942Y-115526819D02*
X177054180Y-115574438D01*
X177054180Y-115574438D02*
X177101800Y-115622057D01*
X177101800Y-115622057D02*
X177149419Y-115717295D01*
X177149419Y-115717295D02*
X177149419Y-115812533D01*
X177149419Y-115812533D02*
X177101800Y-115907771D01*
X177101800Y-115907771D02*
X177054180Y-115955390D01*
X177054180Y-115955390D02*
X176958942Y-116003009D01*
X176958942Y-116003009D02*
X176768466Y-116050628D01*
X176768466Y-116050628D02*
X176530371Y-116050628D01*
X176530371Y-116050628D02*
X176339895Y-116003009D01*
X176339895Y-116003009D02*
X176244657Y-115955390D01*
X176244657Y-115955390D02*
X176197038Y-115907771D01*
X176197038Y-115907771D02*
X176149419Y-115812533D01*
X176149419Y-114860152D02*
X176149419Y-114764914D01*
X176149419Y-114764914D02*
X176197038Y-114669676D01*
X176197038Y-114669676D02*
X176244657Y-114622057D01*
X176244657Y-114622057D02*
X176339895Y-114574438D01*
X176339895Y-114574438D02*
X176530371Y-114526819D01*
X176530371Y-114526819D02*
X176768466Y-114526819D01*
X176768466Y-114526819D02*
X176958942Y-114574438D01*
X176958942Y-114574438D02*
X177054180Y-114622057D01*
X177054180Y-114622057D02*
X177101800Y-114669676D01*
X177101800Y-114669676D02*
X177149419Y-114764914D01*
X177149419Y-114764914D02*
X177149419Y-114860152D01*
X177149419Y-114860152D02*
X177101800Y-114955390D01*
X177101800Y-114955390D02*
X177054180Y-115003009D01*
X177054180Y-115003009D02*
X176958942Y-115050628D01*
X176958942Y-115050628D02*
X176768466Y-115098247D01*
X176768466Y-115098247D02*
X176530371Y-115098247D01*
X176530371Y-115098247D02*
X176339895Y-115050628D01*
X176339895Y-115050628D02*
X176244657Y-115003009D01*
X176244657Y-115003009D02*
X176197038Y-114955390D01*
X176197038Y-114955390D02*
X176149419Y-114860152D01*
X176482752Y-113669676D02*
X177149419Y-113669676D01*
X176482752Y-114098247D02*
X177006561Y-114098247D01*
X177006561Y-114098247D02*
X177101800Y-114050628D01*
X177101800Y-114050628D02*
X177149419Y-113955390D01*
X177149419Y-113955390D02*
X177149419Y-113812533D01*
X177149419Y-113812533D02*
X177101800Y-113717295D01*
X177101800Y-113717295D02*
X177054180Y-113669676D01*
X176625609Y-112860152D02*
X176625609Y-113193485D01*
X177149419Y-113193485D02*
X176149419Y-113193485D01*
X176149419Y-113193485D02*
X176149419Y-112717295D01*
X176101800Y-111622057D02*
X177387514Y-112479199D01*
X177149419Y-110764914D02*
X177149419Y-111336342D01*
X177149419Y-111050628D02*
X176149419Y-111050628D01*
X176149419Y-111050628D02*
X176292276Y-111145866D01*
X176292276Y-111145866D02*
X176387514Y-111241104D01*
X176387514Y-111241104D02*
X176435133Y-111336342D01*
X176149419Y-110145866D02*
X176149419Y-110050628D01*
X176149419Y-110050628D02*
X176197038Y-109955390D01*
X176197038Y-109955390D02*
X176244657Y-109907771D01*
X176244657Y-109907771D02*
X176339895Y-109860152D01*
X176339895Y-109860152D02*
X176530371Y-109812533D01*
X176530371Y-109812533D02*
X176768466Y-109812533D01*
X176768466Y-109812533D02*
X176958942Y-109860152D01*
X176958942Y-109860152D02*
X177054180Y-109907771D01*
X177054180Y-109907771D02*
X177101800Y-109955390D01*
X177101800Y-109955390D02*
X177149419Y-110050628D01*
X177149419Y-110050628D02*
X177149419Y-110145866D01*
X177149419Y-110145866D02*
X177101800Y-110241104D01*
X177101800Y-110241104D02*
X177054180Y-110288723D01*
X177054180Y-110288723D02*
X176958942Y-110336342D01*
X176958942Y-110336342D02*
X176768466Y-110383961D01*
X176768466Y-110383961D02*
X176530371Y-110383961D01*
X176530371Y-110383961D02*
X176339895Y-110336342D01*
X176339895Y-110336342D02*
X176244657Y-110288723D01*
X176244657Y-110288723D02*
X176197038Y-110241104D01*
X176197038Y-110241104D02*
X176149419Y-110145866D01*
X176149419Y-109526818D02*
X177149419Y-109193485D01*
X177149419Y-109193485D02*
X176149419Y-108860152D01*
X173054180Y-113597970D02*
X173101800Y-113645589D01*
X173101800Y-113645589D02*
X173149419Y-113788446D01*
X173149419Y-113788446D02*
X173149419Y-113883684D01*
X173149419Y-113883684D02*
X173101800Y-114026541D01*
X173101800Y-114026541D02*
X173006561Y-114121779D01*
X173006561Y-114121779D02*
X172911323Y-114169398D01*
X172911323Y-114169398D02*
X172720847Y-114217017D01*
X172720847Y-114217017D02*
X172577990Y-114217017D01*
X172577990Y-114217017D02*
X172387514Y-114169398D01*
X172387514Y-114169398D02*
X172292276Y-114121779D01*
X172292276Y-114121779D02*
X172197038Y-114026541D01*
X172197038Y-114026541D02*
X172149419Y-113883684D01*
X172149419Y-113883684D02*
X172149419Y-113788446D01*
X172149419Y-113788446D02*
X172197038Y-113645589D01*
X172197038Y-113645589D02*
X172244657Y-113597970D01*
X172244657Y-113217017D02*
X172197038Y-113169398D01*
X172197038Y-113169398D02*
X172149419Y-113074160D01*
X172149419Y-113074160D02*
X172149419Y-112836065D01*
X172149419Y-112836065D02*
X172197038Y-112740827D01*
X172197038Y-112740827D02*
X172244657Y-112693208D01*
X172244657Y-112693208D02*
X172339895Y-112645589D01*
X172339895Y-112645589D02*
X172435133Y-112645589D01*
X172435133Y-112645589D02*
X172577990Y-112693208D01*
X172577990Y-112693208D02*
X173149419Y-113264636D01*
X173149419Y-113264636D02*
X173149419Y-112645589D01*
X172244657Y-112264636D02*
X172197038Y-112217017D01*
X172197038Y-112217017D02*
X172149419Y-112121779D01*
X172149419Y-112121779D02*
X172149419Y-111883684D01*
X172149419Y-111883684D02*
X172197038Y-111788446D01*
X172197038Y-111788446D02*
X172244657Y-111740827D01*
X172244657Y-111740827D02*
X172339895Y-111693208D01*
X172339895Y-111693208D02*
X172435133Y-111693208D01*
X172435133Y-111693208D02*
X172577990Y-111740827D01*
X172577990Y-111740827D02*
X173149419Y-112312255D01*
X173149419Y-112312255D02*
X173149419Y-111693208D01*
X109824819Y-100105713D02*
X109824819Y-99486666D01*
X109824819Y-99486666D02*
X110205771Y-99819999D01*
X110205771Y-99819999D02*
X110205771Y-99677142D01*
X110205771Y-99677142D02*
X110253390Y-99581904D01*
X110253390Y-99581904D02*
X110301009Y-99534285D01*
X110301009Y-99534285D02*
X110396247Y-99486666D01*
X110396247Y-99486666D02*
X110634342Y-99486666D01*
X110634342Y-99486666D02*
X110729580Y-99534285D01*
X110729580Y-99534285D02*
X110777200Y-99581904D01*
X110777200Y-99581904D02*
X110824819Y-99677142D01*
X110824819Y-99677142D02*
X110824819Y-99962856D01*
X110824819Y-99962856D02*
X110777200Y-100058094D01*
X110777200Y-100058094D02*
X110729580Y-100105713D01*
X109824819Y-99153332D02*
X109824819Y-98534285D01*
X109824819Y-98534285D02*
X110205771Y-98867618D01*
X110205771Y-98867618D02*
X110205771Y-98724761D01*
X110205771Y-98724761D02*
X110253390Y-98629523D01*
X110253390Y-98629523D02*
X110301009Y-98581904D01*
X110301009Y-98581904D02*
X110396247Y-98534285D01*
X110396247Y-98534285D02*
X110634342Y-98534285D01*
X110634342Y-98534285D02*
X110729580Y-98581904D01*
X110729580Y-98581904D02*
X110777200Y-98629523D01*
X110777200Y-98629523D02*
X110824819Y-98724761D01*
X110824819Y-98724761D02*
X110824819Y-99010475D01*
X110824819Y-99010475D02*
X110777200Y-99105713D01*
X110777200Y-99105713D02*
X110729580Y-99153332D01*
X109824819Y-97915237D02*
X109824819Y-97819999D01*
X109824819Y-97819999D02*
X109872438Y-97724761D01*
X109872438Y-97724761D02*
X109920057Y-97677142D01*
X109920057Y-97677142D02*
X110015295Y-97629523D01*
X110015295Y-97629523D02*
X110205771Y-97581904D01*
X110205771Y-97581904D02*
X110443866Y-97581904D01*
X110443866Y-97581904D02*
X110634342Y-97629523D01*
X110634342Y-97629523D02*
X110729580Y-97677142D01*
X110729580Y-97677142D02*
X110777200Y-97724761D01*
X110777200Y-97724761D02*
X110824819Y-97819999D01*
X110824819Y-97819999D02*
X110824819Y-97915237D01*
X110824819Y-97915237D02*
X110777200Y-98010475D01*
X110777200Y-98010475D02*
X110729580Y-98058094D01*
X110729580Y-98058094D02*
X110634342Y-98105713D01*
X110634342Y-98105713D02*
X110443866Y-98153332D01*
X110443866Y-98153332D02*
X110205771Y-98153332D01*
X110205771Y-98153332D02*
X110015295Y-98105713D01*
X110015295Y-98105713D02*
X109920057Y-98058094D01*
X109920057Y-98058094D02*
X109872438Y-98010475D01*
X109872438Y-98010475D02*
X109824819Y-97915237D01*
X106084819Y-99462857D02*
X105608628Y-99796190D01*
X106084819Y-100034285D02*
X105084819Y-100034285D01*
X105084819Y-100034285D02*
X105084819Y-99653333D01*
X105084819Y-99653333D02*
X105132438Y-99558095D01*
X105132438Y-99558095D02*
X105180057Y-99510476D01*
X105180057Y-99510476D02*
X105275295Y-99462857D01*
X105275295Y-99462857D02*
X105418152Y-99462857D01*
X105418152Y-99462857D02*
X105513390Y-99510476D01*
X105513390Y-99510476D02*
X105561009Y-99558095D01*
X105561009Y-99558095D02*
X105608628Y-99653333D01*
X105608628Y-99653333D02*
X105608628Y-100034285D01*
X106084819Y-98510476D02*
X106084819Y-99081904D01*
X106084819Y-98796190D02*
X105084819Y-98796190D01*
X105084819Y-98796190D02*
X105227676Y-98891428D01*
X105227676Y-98891428D02*
X105322914Y-98986666D01*
X105322914Y-98986666D02*
X105370533Y-99081904D01*
X105084819Y-97891428D02*
X105084819Y-97796190D01*
X105084819Y-97796190D02*
X105132438Y-97700952D01*
X105132438Y-97700952D02*
X105180057Y-97653333D01*
X105180057Y-97653333D02*
X105275295Y-97605714D01*
X105275295Y-97605714D02*
X105465771Y-97558095D01*
X105465771Y-97558095D02*
X105703866Y-97558095D01*
X105703866Y-97558095D02*
X105894342Y-97605714D01*
X105894342Y-97605714D02*
X105989580Y-97653333D01*
X105989580Y-97653333D02*
X106037200Y-97700952D01*
X106037200Y-97700952D02*
X106084819Y-97796190D01*
X106084819Y-97796190D02*
X106084819Y-97891428D01*
X106084819Y-97891428D02*
X106037200Y-97986666D01*
X106037200Y-97986666D02*
X105989580Y-98034285D01*
X105989580Y-98034285D02*
X105894342Y-98081904D01*
X105894342Y-98081904D02*
X105703866Y-98129523D01*
X105703866Y-98129523D02*
X105465771Y-98129523D01*
X105465771Y-98129523D02*
X105275295Y-98081904D01*
X105275295Y-98081904D02*
X105180057Y-98034285D01*
X105180057Y-98034285D02*
X105132438Y-97986666D01*
X105132438Y-97986666D02*
X105084819Y-97891428D01*
X117924819Y-100060713D02*
X117924819Y-99441666D01*
X117924819Y-99441666D02*
X118305771Y-99774999D01*
X118305771Y-99774999D02*
X118305771Y-99632142D01*
X118305771Y-99632142D02*
X118353390Y-99536904D01*
X118353390Y-99536904D02*
X118401009Y-99489285D01*
X118401009Y-99489285D02*
X118496247Y-99441666D01*
X118496247Y-99441666D02*
X118734342Y-99441666D01*
X118734342Y-99441666D02*
X118829580Y-99489285D01*
X118829580Y-99489285D02*
X118877200Y-99536904D01*
X118877200Y-99536904D02*
X118924819Y-99632142D01*
X118924819Y-99632142D02*
X118924819Y-99917856D01*
X118924819Y-99917856D02*
X118877200Y-100013094D01*
X118877200Y-100013094D02*
X118829580Y-100060713D01*
X117924819Y-99108332D02*
X117924819Y-98489285D01*
X117924819Y-98489285D02*
X118305771Y-98822618D01*
X118305771Y-98822618D02*
X118305771Y-98679761D01*
X118305771Y-98679761D02*
X118353390Y-98584523D01*
X118353390Y-98584523D02*
X118401009Y-98536904D01*
X118401009Y-98536904D02*
X118496247Y-98489285D01*
X118496247Y-98489285D02*
X118734342Y-98489285D01*
X118734342Y-98489285D02*
X118829580Y-98536904D01*
X118829580Y-98536904D02*
X118877200Y-98584523D01*
X118877200Y-98584523D02*
X118924819Y-98679761D01*
X118924819Y-98679761D02*
X118924819Y-98965475D01*
X118924819Y-98965475D02*
X118877200Y-99060713D01*
X118877200Y-99060713D02*
X118829580Y-99108332D01*
X117924819Y-97870237D02*
X117924819Y-97774999D01*
X117924819Y-97774999D02*
X117972438Y-97679761D01*
X117972438Y-97679761D02*
X118020057Y-97632142D01*
X118020057Y-97632142D02*
X118115295Y-97584523D01*
X118115295Y-97584523D02*
X118305771Y-97536904D01*
X118305771Y-97536904D02*
X118543866Y-97536904D01*
X118543866Y-97536904D02*
X118734342Y-97584523D01*
X118734342Y-97584523D02*
X118829580Y-97632142D01*
X118829580Y-97632142D02*
X118877200Y-97679761D01*
X118877200Y-97679761D02*
X118924819Y-97774999D01*
X118924819Y-97774999D02*
X118924819Y-97870237D01*
X118924819Y-97870237D02*
X118877200Y-97965475D01*
X118877200Y-97965475D02*
X118829580Y-98013094D01*
X118829580Y-98013094D02*
X118734342Y-98060713D01*
X118734342Y-98060713D02*
X118543866Y-98108332D01*
X118543866Y-98108332D02*
X118305771Y-98108332D01*
X118305771Y-98108332D02*
X118115295Y-98060713D01*
X118115295Y-98060713D02*
X118020057Y-98013094D01*
X118020057Y-98013094D02*
X117972438Y-97965475D01*
X117972438Y-97965475D02*
X117924819Y-97870237D01*
X114184819Y-99417857D02*
X113708628Y-99751190D01*
X114184819Y-99989285D02*
X113184819Y-99989285D01*
X113184819Y-99989285D02*
X113184819Y-99608333D01*
X113184819Y-99608333D02*
X113232438Y-99513095D01*
X113232438Y-99513095D02*
X113280057Y-99465476D01*
X113280057Y-99465476D02*
X113375295Y-99417857D01*
X113375295Y-99417857D02*
X113518152Y-99417857D01*
X113518152Y-99417857D02*
X113613390Y-99465476D01*
X113613390Y-99465476D02*
X113661009Y-99513095D01*
X113661009Y-99513095D02*
X113708628Y-99608333D01*
X113708628Y-99608333D02*
X113708628Y-99989285D01*
X114184819Y-98465476D02*
X114184819Y-99036904D01*
X114184819Y-98751190D02*
X113184819Y-98751190D01*
X113184819Y-98751190D02*
X113327676Y-98846428D01*
X113327676Y-98846428D02*
X113422914Y-98941666D01*
X113422914Y-98941666D02*
X113470533Y-99036904D01*
X113280057Y-98084523D02*
X113232438Y-98036904D01*
X113232438Y-98036904D02*
X113184819Y-97941666D01*
X113184819Y-97941666D02*
X113184819Y-97703571D01*
X113184819Y-97703571D02*
X113232438Y-97608333D01*
X113232438Y-97608333D02*
X113280057Y-97560714D01*
X113280057Y-97560714D02*
X113375295Y-97513095D01*
X113375295Y-97513095D02*
X113470533Y-97513095D01*
X113470533Y-97513095D02*
X113613390Y-97560714D01*
X113613390Y-97560714D02*
X114184819Y-98132142D01*
X114184819Y-98132142D02*
X114184819Y-97513095D01*
X121412435Y-111954819D02*
X120936245Y-111954819D01*
X120936245Y-111954819D02*
X120936245Y-110954819D01*
X121745769Y-111431009D02*
X122079102Y-111431009D01*
X122221959Y-111954819D02*
X121745769Y-111954819D01*
X121745769Y-111954819D02*
X121745769Y-110954819D01*
X121745769Y-110954819D02*
X122221959Y-110954819D01*
X122650531Y-111954819D02*
X122650531Y-110954819D01*
X122650531Y-110954819D02*
X122888626Y-110954819D01*
X122888626Y-110954819D02*
X123031483Y-111002438D01*
X123031483Y-111002438D02*
X123126721Y-111097676D01*
X123126721Y-111097676D02*
X123174340Y-111192914D01*
X123174340Y-111192914D02*
X123221959Y-111383390D01*
X123221959Y-111383390D02*
X123221959Y-111526247D01*
X123221959Y-111526247D02*
X123174340Y-111716723D01*
X123174340Y-111716723D02*
X123126721Y-111811961D01*
X123126721Y-111811961D02*
X123031483Y-111907200D01*
X123031483Y-111907200D02*
X122888626Y-111954819D01*
X122888626Y-111954819D02*
X122650531Y-111954819D01*
X123412436Y-112050057D02*
X124174340Y-112050057D01*
X124650531Y-111764342D02*
X124269579Y-111859580D01*
X124793388Y-111288152D02*
X125507674Y-111288152D01*
X124841007Y-111431009D02*
X124983864Y-111573866D01*
X124841007Y-111097676D02*
X125364817Y-111097676D01*
X124983864Y-111954819D02*
X125126721Y-111954819D01*
X125079102Y-111621485D02*
X124793388Y-111811961D01*
X125126721Y-111288152D02*
X125126721Y-111954819D01*
X125126721Y-111526247D02*
X125412436Y-111811961D01*
X124507674Y-110811961D02*
X124269579Y-111335771D01*
X124269579Y-111335771D02*
X124507674Y-111240533D01*
X124602912Y-111145295D02*
X124269579Y-111621485D01*
X124269579Y-111621485D02*
X124650531Y-111526247D01*
X124841007Y-110907200D02*
X125412436Y-110907200D01*
X125412436Y-110907200D02*
X125364817Y-111288152D01*
X125460055Y-111431009D02*
X125364817Y-111526247D01*
X125364817Y-111526247D02*
X125221960Y-111573866D01*
D11*
X122679524Y-106958855D02*
X122679524Y-106158855D01*
X122679524Y-106158855D02*
X122870000Y-106158855D01*
X122870000Y-106158855D02*
X122984286Y-106196950D01*
X122984286Y-106196950D02*
X123060476Y-106273140D01*
X123060476Y-106273140D02*
X123098571Y-106349331D01*
X123098571Y-106349331D02*
X123136667Y-106501712D01*
X123136667Y-106501712D02*
X123136667Y-106615998D01*
X123136667Y-106615998D02*
X123098571Y-106768379D01*
X123098571Y-106768379D02*
X123060476Y-106844569D01*
X123060476Y-106844569D02*
X122984286Y-106920760D01*
X122984286Y-106920760D02*
X122870000Y-106958855D01*
X122870000Y-106958855D02*
X122679524Y-106958855D01*
X123822381Y-106425521D02*
X123822381Y-106958855D01*
X123631905Y-106120760D02*
X123441428Y-106692188D01*
X123441428Y-106692188D02*
X123936667Y-106692188D01*
D10*
X149012419Y-69759247D02*
X148012419Y-69759247D01*
X148012419Y-69759247D02*
X148012419Y-69521152D01*
X148012419Y-69521152D02*
X148060038Y-69378295D01*
X148060038Y-69378295D02*
X148155276Y-69283057D01*
X148155276Y-69283057D02*
X148250514Y-69235438D01*
X148250514Y-69235438D02*
X148440990Y-69187819D01*
X148440990Y-69187819D02*
X148583847Y-69187819D01*
X148583847Y-69187819D02*
X148774323Y-69235438D01*
X148774323Y-69235438D02*
X148869561Y-69283057D01*
X148869561Y-69283057D02*
X148964800Y-69378295D01*
X148964800Y-69378295D02*
X149012419Y-69521152D01*
X149012419Y-69521152D02*
X149012419Y-69759247D01*
X149012419Y-68759247D02*
X148012419Y-68759247D01*
X148488609Y-68759247D02*
X148488609Y-68187819D01*
X149012419Y-68187819D02*
X148012419Y-68187819D01*
X148012419Y-67854485D02*
X148012419Y-67283057D01*
X149012419Y-67568771D02*
X148012419Y-67568771D01*
X148107657Y-66997342D02*
X148060038Y-66949723D01*
X148060038Y-66949723D02*
X148012419Y-66854485D01*
X148012419Y-66854485D02*
X148012419Y-66616390D01*
X148012419Y-66616390D02*
X148060038Y-66521152D01*
X148060038Y-66521152D02*
X148107657Y-66473533D01*
X148107657Y-66473533D02*
X148202895Y-66425914D01*
X148202895Y-66425914D02*
X148298133Y-66425914D01*
X148298133Y-66425914D02*
X148440990Y-66473533D01*
X148440990Y-66473533D02*
X149012419Y-67044961D01*
X149012419Y-67044961D02*
X149012419Y-66425914D01*
X148107657Y-66044961D02*
X148060038Y-65997342D01*
X148060038Y-65997342D02*
X148012419Y-65902104D01*
X148012419Y-65902104D02*
X148012419Y-65664009D01*
X148012419Y-65664009D02*
X148060038Y-65568771D01*
X148060038Y-65568771D02*
X148107657Y-65521152D01*
X148107657Y-65521152D02*
X148202895Y-65473533D01*
X148202895Y-65473533D02*
X148298133Y-65473533D01*
X148298133Y-65473533D02*
X148440990Y-65521152D01*
X148440990Y-65521152D02*
X149012419Y-66092580D01*
X149012419Y-66092580D02*
X149012419Y-65473533D01*
X154454266Y-67095019D02*
X154454266Y-67809304D01*
X154454266Y-67809304D02*
X154406647Y-67952161D01*
X154406647Y-67952161D02*
X154311409Y-68047400D01*
X154311409Y-68047400D02*
X154168552Y-68095019D01*
X154168552Y-68095019D02*
X154073314Y-68095019D01*
X154882838Y-67190257D02*
X154930457Y-67142638D01*
X154930457Y-67142638D02*
X155025695Y-67095019D01*
X155025695Y-67095019D02*
X155263790Y-67095019D01*
X155263790Y-67095019D02*
X155359028Y-67142638D01*
X155359028Y-67142638D02*
X155406647Y-67190257D01*
X155406647Y-67190257D02*
X155454266Y-67285495D01*
X155454266Y-67285495D02*
X155454266Y-67380733D01*
X155454266Y-67380733D02*
X155406647Y-67523590D01*
X155406647Y-67523590D02*
X154835219Y-68095019D01*
X154835219Y-68095019D02*
X155454266Y-68095019D01*
X145160000Y-108953419D02*
X145350476Y-108953419D01*
X145350476Y-108953419D02*
X145445714Y-109001038D01*
X145445714Y-109001038D02*
X145540952Y-109096276D01*
X145540952Y-109096276D02*
X145588571Y-109286752D01*
X145588571Y-109286752D02*
X145588571Y-109620085D01*
X145588571Y-109620085D02*
X145540952Y-109810561D01*
X145540952Y-109810561D02*
X145445714Y-109905800D01*
X145445714Y-109905800D02*
X145350476Y-109953419D01*
X145350476Y-109953419D02*
X145160000Y-109953419D01*
X145160000Y-109953419D02*
X145064762Y-109905800D01*
X145064762Y-109905800D02*
X144969524Y-109810561D01*
X144969524Y-109810561D02*
X144921905Y-109620085D01*
X144921905Y-109620085D02*
X144921905Y-109286752D01*
X144921905Y-109286752D02*
X144969524Y-109096276D01*
X144969524Y-109096276D02*
X145064762Y-109001038D01*
X145064762Y-109001038D02*
X145160000Y-108953419D01*
X146493333Y-109953419D02*
X146017143Y-109953419D01*
X146017143Y-109953419D02*
X146017143Y-108953419D01*
X146826667Y-109429609D02*
X147160000Y-109429609D01*
X147302857Y-109953419D02*
X146826667Y-109953419D01*
X146826667Y-109953419D02*
X146826667Y-108953419D01*
X146826667Y-108953419D02*
X147302857Y-108953419D01*
X147731429Y-109953419D02*
X147731429Y-108953419D01*
X147731429Y-108953419D02*
X147969524Y-108953419D01*
X147969524Y-108953419D02*
X148112381Y-109001038D01*
X148112381Y-109001038D02*
X148207619Y-109096276D01*
X148207619Y-109096276D02*
X148255238Y-109191514D01*
X148255238Y-109191514D02*
X148302857Y-109381990D01*
X148302857Y-109381990D02*
X148302857Y-109524847D01*
X148302857Y-109524847D02*
X148255238Y-109715323D01*
X148255238Y-109715323D02*
X148207619Y-109810561D01*
X148207619Y-109810561D02*
X148112381Y-109905800D01*
X148112381Y-109905800D02*
X147969524Y-109953419D01*
X147969524Y-109953419D02*
X147731429Y-109953419D01*
X148731429Y-109572466D02*
X149493334Y-109572466D01*
X149112381Y-109953419D02*
X149112381Y-109191514D01*
X150302857Y-109429609D02*
X150445714Y-109477228D01*
X150445714Y-109477228D02*
X150493333Y-109524847D01*
X150493333Y-109524847D02*
X150540952Y-109620085D01*
X150540952Y-109620085D02*
X150540952Y-109762942D01*
X150540952Y-109762942D02*
X150493333Y-109858180D01*
X150493333Y-109858180D02*
X150445714Y-109905800D01*
X150445714Y-109905800D02*
X150350476Y-109953419D01*
X150350476Y-109953419D02*
X149969524Y-109953419D01*
X149969524Y-109953419D02*
X149969524Y-108953419D01*
X149969524Y-108953419D02*
X150302857Y-108953419D01*
X150302857Y-108953419D02*
X150398095Y-109001038D01*
X150398095Y-109001038D02*
X150445714Y-109048657D01*
X150445714Y-109048657D02*
X150493333Y-109143895D01*
X150493333Y-109143895D02*
X150493333Y-109239133D01*
X150493333Y-109239133D02*
X150445714Y-109334371D01*
X150445714Y-109334371D02*
X150398095Y-109381990D01*
X150398095Y-109381990D02*
X150302857Y-109429609D01*
X150302857Y-109429609D02*
X149969524Y-109429609D01*
X150969524Y-109953419D02*
X150969524Y-108953419D01*
X150969524Y-109429609D02*
X151540952Y-109429609D01*
X151540952Y-109953419D02*
X151540952Y-108953419D01*
X152540952Y-109953419D02*
X151969524Y-109953419D01*
X152255238Y-109953419D02*
X152255238Y-108953419D01*
X152255238Y-108953419D02*
X152160000Y-109096276D01*
X152160000Y-109096276D02*
X152064762Y-109191514D01*
X152064762Y-109191514D02*
X151969524Y-109239133D01*
X152874286Y-108953419D02*
X153540952Y-108953419D01*
X153540952Y-108953419D02*
X153112381Y-109953419D01*
X154398095Y-108953419D02*
X153921905Y-108953419D01*
X153921905Y-108953419D02*
X153874286Y-109429609D01*
X153874286Y-109429609D02*
X153921905Y-109381990D01*
X153921905Y-109381990D02*
X154017143Y-109334371D01*
X154017143Y-109334371D02*
X154255238Y-109334371D01*
X154255238Y-109334371D02*
X154350476Y-109381990D01*
X154350476Y-109381990D02*
X154398095Y-109429609D01*
X154398095Y-109429609D02*
X154445714Y-109524847D01*
X154445714Y-109524847D02*
X154445714Y-109762942D01*
X154445714Y-109762942D02*
X154398095Y-109858180D01*
X154398095Y-109858180D02*
X154350476Y-109905800D01*
X154350476Y-109905800D02*
X154255238Y-109953419D01*
X154255238Y-109953419D02*
X154017143Y-109953419D01*
X154017143Y-109953419D02*
X153921905Y-109905800D01*
X153921905Y-109905800D02*
X153874286Y-109858180D01*
X155064762Y-108953419D02*
X155160000Y-108953419D01*
X155160000Y-108953419D02*
X155255238Y-109001038D01*
X155255238Y-109001038D02*
X155302857Y-109048657D01*
X155302857Y-109048657D02*
X155350476Y-109143895D01*
X155350476Y-109143895D02*
X155398095Y-109334371D01*
X155398095Y-109334371D02*
X155398095Y-109572466D01*
X155398095Y-109572466D02*
X155350476Y-109762942D01*
X155350476Y-109762942D02*
X155302857Y-109858180D01*
X155302857Y-109858180D02*
X155255238Y-109905800D01*
X155255238Y-109905800D02*
X155160000Y-109953419D01*
X155160000Y-109953419D02*
X155064762Y-109953419D01*
X155064762Y-109953419D02*
X154969524Y-109905800D01*
X154969524Y-109905800D02*
X154921905Y-109858180D01*
X154921905Y-109858180D02*
X154874286Y-109762942D01*
X154874286Y-109762942D02*
X154826667Y-109572466D01*
X154826667Y-109572466D02*
X154826667Y-109334371D01*
X154826667Y-109334371D02*
X154874286Y-109143895D01*
X154874286Y-109143895D02*
X154921905Y-109048657D01*
X154921905Y-109048657D02*
X154969524Y-109001038D01*
X154969524Y-109001038D02*
X155064762Y-108953419D01*
X149396666Y-111696619D02*
X149396666Y-112410904D01*
X149396666Y-112410904D02*
X149349047Y-112553761D01*
X149349047Y-112553761D02*
X149253809Y-112649000D01*
X149253809Y-112649000D02*
X149110952Y-112696619D01*
X149110952Y-112696619D02*
X149015714Y-112696619D01*
X149777619Y-111696619D02*
X150396666Y-111696619D01*
X150396666Y-111696619D02*
X150063333Y-112077571D01*
X150063333Y-112077571D02*
X150206190Y-112077571D01*
X150206190Y-112077571D02*
X150301428Y-112125190D01*
X150301428Y-112125190D02*
X150349047Y-112172809D01*
X150349047Y-112172809D02*
X150396666Y-112268047D01*
X150396666Y-112268047D02*
X150396666Y-112506142D01*
X150396666Y-112506142D02*
X150349047Y-112601380D01*
X150349047Y-112601380D02*
X150301428Y-112649000D01*
X150301428Y-112649000D02*
X150206190Y-112696619D01*
X150206190Y-112696619D02*
X149920476Y-112696619D01*
X149920476Y-112696619D02*
X149825238Y-112649000D01*
X149825238Y-112649000D02*
X149777619Y-112601380D01*
X171944980Y-87714419D02*
X171373552Y-87714419D01*
X171659266Y-87714419D02*
X171659266Y-86714419D01*
X171659266Y-86714419D02*
X171564028Y-86857276D01*
X171564028Y-86857276D02*
X171468790Y-86952514D01*
X171468790Y-86952514D02*
X171373552Y-87000133D01*
X172564028Y-86714419D02*
X172659266Y-86714419D01*
X172659266Y-86714419D02*
X172754504Y-86762038D01*
X172754504Y-86762038D02*
X172802123Y-86809657D01*
X172802123Y-86809657D02*
X172849742Y-86904895D01*
X172849742Y-86904895D02*
X172897361Y-87095371D01*
X172897361Y-87095371D02*
X172897361Y-87333466D01*
X172897361Y-87333466D02*
X172849742Y-87523942D01*
X172849742Y-87523942D02*
X172802123Y-87619180D01*
X172802123Y-87619180D02*
X172754504Y-87666800D01*
X172754504Y-87666800D02*
X172659266Y-87714419D01*
X172659266Y-87714419D02*
X172564028Y-87714419D01*
X172564028Y-87714419D02*
X172468790Y-87666800D01*
X172468790Y-87666800D02*
X172421171Y-87619180D01*
X172421171Y-87619180D02*
X172373552Y-87523942D01*
X172373552Y-87523942D02*
X172325933Y-87333466D01*
X172325933Y-87333466D02*
X172325933Y-87095371D01*
X172325933Y-87095371D02*
X172373552Y-86904895D01*
X172373552Y-86904895D02*
X172421171Y-86809657D01*
X172421171Y-86809657D02*
X172468790Y-86762038D01*
X172468790Y-86762038D02*
X172564028Y-86714419D01*
X173516409Y-86714419D02*
X173611647Y-86714419D01*
X173611647Y-86714419D02*
X173706885Y-86762038D01*
X173706885Y-86762038D02*
X173754504Y-86809657D01*
X173754504Y-86809657D02*
X173802123Y-86904895D01*
X173802123Y-86904895D02*
X173849742Y-87095371D01*
X173849742Y-87095371D02*
X173849742Y-87333466D01*
X173849742Y-87333466D02*
X173802123Y-87523942D01*
X173802123Y-87523942D02*
X173754504Y-87619180D01*
X173754504Y-87619180D02*
X173706885Y-87666800D01*
X173706885Y-87666800D02*
X173611647Y-87714419D01*
X173611647Y-87714419D02*
X173516409Y-87714419D01*
X173516409Y-87714419D02*
X173421171Y-87666800D01*
X173421171Y-87666800D02*
X173373552Y-87619180D01*
X173373552Y-87619180D02*
X173325933Y-87523942D01*
X173325933Y-87523942D02*
X173278314Y-87333466D01*
X173278314Y-87333466D02*
X173278314Y-87095371D01*
X173278314Y-87095371D02*
X173325933Y-86904895D01*
X173325933Y-86904895D02*
X173373552Y-86809657D01*
X173373552Y-86809657D02*
X173421171Y-86762038D01*
X173421171Y-86762038D02*
X173516409Y-86714419D01*
X174278314Y-87047752D02*
X174278314Y-87714419D01*
X174278314Y-87142990D02*
X174325933Y-87095371D01*
X174325933Y-87095371D02*
X174421171Y-87047752D01*
X174421171Y-87047752D02*
X174564028Y-87047752D01*
X174564028Y-87047752D02*
X174659266Y-87095371D01*
X174659266Y-87095371D02*
X174706885Y-87190609D01*
X174706885Y-87190609D02*
X174706885Y-87714419D01*
X175516409Y-87190609D02*
X175183076Y-87190609D01*
X175183076Y-87714419D02*
X175183076Y-86714419D01*
X175183076Y-86714419D02*
X175659266Y-86714419D01*
D12*
X173106885Y-89725348D02*
X173078313Y-89753920D01*
X173078313Y-89753920D02*
X172992599Y-89782491D01*
X172992599Y-89782491D02*
X172935456Y-89782491D01*
X172935456Y-89782491D02*
X172849742Y-89753920D01*
X172849742Y-89753920D02*
X172792599Y-89696777D01*
X172792599Y-89696777D02*
X172764028Y-89639634D01*
X172764028Y-89639634D02*
X172735456Y-89525348D01*
X172735456Y-89525348D02*
X172735456Y-89439634D01*
X172735456Y-89439634D02*
X172764028Y-89325348D01*
X172764028Y-89325348D02*
X172792599Y-89268205D01*
X172792599Y-89268205D02*
X172849742Y-89211062D01*
X172849742Y-89211062D02*
X172935456Y-89182491D01*
X172935456Y-89182491D02*
X172992599Y-89182491D01*
X172992599Y-89182491D02*
X173078313Y-89211062D01*
X173078313Y-89211062D02*
X173106885Y-89239634D01*
X173678313Y-89782491D02*
X173335456Y-89782491D01*
X173506885Y-89782491D02*
X173506885Y-89182491D01*
X173506885Y-89182491D02*
X173449742Y-89268205D01*
X173449742Y-89268205D02*
X173392599Y-89325348D01*
X173392599Y-89325348D02*
X173335456Y-89353920D01*
X173964028Y-89782491D02*
X174078314Y-89782491D01*
X174078314Y-89782491D02*
X174135457Y-89753920D01*
X174135457Y-89753920D02*
X174164028Y-89725348D01*
X174164028Y-89725348D02*
X174221171Y-89639634D01*
X174221171Y-89639634D02*
X174249742Y-89525348D01*
X174249742Y-89525348D02*
X174249742Y-89296777D01*
X174249742Y-89296777D02*
X174221171Y-89239634D01*
X174221171Y-89239634D02*
X174192600Y-89211062D01*
X174192600Y-89211062D02*
X174135457Y-89182491D01*
X174135457Y-89182491D02*
X174021171Y-89182491D01*
X174021171Y-89182491D02*
X173964028Y-89211062D01*
X173964028Y-89211062D02*
X173935457Y-89239634D01*
X173935457Y-89239634D02*
X173906885Y-89296777D01*
X173906885Y-89296777D02*
X173906885Y-89439634D01*
X173906885Y-89439634D02*
X173935457Y-89496777D01*
X173935457Y-89496777D02*
X173964028Y-89525348D01*
X173964028Y-89525348D02*
X174021171Y-89553920D01*
X174021171Y-89553920D02*
X174135457Y-89553920D01*
X174135457Y-89553920D02*
X174192600Y-89525348D01*
X174192600Y-89525348D02*
X174221171Y-89496777D01*
X174221171Y-89496777D02*
X174249742Y-89439634D01*
D10*
X169497419Y-83619047D02*
X168497419Y-83619047D01*
X169497419Y-83047619D02*
X168925990Y-83476190D01*
X168497419Y-83047619D02*
X169068847Y-83619047D01*
X168973609Y-82619047D02*
X168973609Y-82285714D01*
X169497419Y-82142857D02*
X169497419Y-82619047D01*
X169497419Y-82619047D02*
X168497419Y-82619047D01*
X168497419Y-82619047D02*
X168497419Y-82142857D01*
X169021228Y-81523809D02*
X169497419Y-81523809D01*
X168497419Y-81857142D02*
X169021228Y-81523809D01*
X169021228Y-81523809D02*
X168497419Y-81190476D01*
X168592657Y-80904761D02*
X168545038Y-80857142D01*
X168545038Y-80857142D02*
X168497419Y-80761904D01*
X168497419Y-80761904D02*
X168497419Y-80523809D01*
X168497419Y-80523809D02*
X168545038Y-80428571D01*
X168545038Y-80428571D02*
X168592657Y-80380952D01*
X168592657Y-80380952D02*
X168687895Y-80333333D01*
X168687895Y-80333333D02*
X168783133Y-80333333D01*
X168783133Y-80333333D02*
X168925990Y-80380952D01*
X168925990Y-80380952D02*
X169497419Y-80952380D01*
X169497419Y-80952380D02*
X169497419Y-80333333D01*
X173899800Y-82833332D02*
X173947419Y-82690475D01*
X173947419Y-82690475D02*
X173947419Y-82452380D01*
X173947419Y-82452380D02*
X173899800Y-82357142D01*
X173899800Y-82357142D02*
X173852180Y-82309523D01*
X173852180Y-82309523D02*
X173756942Y-82261904D01*
X173756942Y-82261904D02*
X173661704Y-82261904D01*
X173661704Y-82261904D02*
X173566466Y-82309523D01*
X173566466Y-82309523D02*
X173518847Y-82357142D01*
X173518847Y-82357142D02*
X173471228Y-82452380D01*
X173471228Y-82452380D02*
X173423609Y-82642856D01*
X173423609Y-82642856D02*
X173375990Y-82738094D01*
X173375990Y-82738094D02*
X173328371Y-82785713D01*
X173328371Y-82785713D02*
X173233133Y-82833332D01*
X173233133Y-82833332D02*
X173137895Y-82833332D01*
X173137895Y-82833332D02*
X173042657Y-82785713D01*
X173042657Y-82785713D02*
X172995038Y-82738094D01*
X172995038Y-82738094D02*
X172947419Y-82642856D01*
X172947419Y-82642856D02*
X172947419Y-82404761D01*
X172947419Y-82404761D02*
X172995038Y-82261904D01*
X172947419Y-81928570D02*
X173947419Y-81690475D01*
X173947419Y-81690475D02*
X173233133Y-81499999D01*
X173233133Y-81499999D02*
X173947419Y-81309523D01*
X173947419Y-81309523D02*
X172947419Y-81071428D01*
X172947419Y-80785713D02*
X172947419Y-80166666D01*
X172947419Y-80166666D02*
X173328371Y-80499999D01*
X173328371Y-80499999D02*
X173328371Y-80357142D01*
X173328371Y-80357142D02*
X173375990Y-80261904D01*
X173375990Y-80261904D02*
X173423609Y-80214285D01*
X173423609Y-80214285D02*
X173518847Y-80166666D01*
X173518847Y-80166666D02*
X173756942Y-80166666D01*
X173756942Y-80166666D02*
X173852180Y-80214285D01*
X173852180Y-80214285D02*
X173899800Y-80261904D01*
X173899800Y-80261904D02*
X173947419Y-80357142D01*
X173947419Y-80357142D02*
X173947419Y-80642856D01*
X173947419Y-80642856D02*
X173899800Y-80738094D01*
X173899800Y-80738094D02*
X173852180Y-80785713D01*
X167663019Y-116355381D02*
X167663019Y-116926809D01*
X167663019Y-116641095D02*
X166663019Y-116641095D01*
X166663019Y-116641095D02*
X166805876Y-116736333D01*
X166805876Y-116736333D02*
X166901114Y-116831571D01*
X166901114Y-116831571D02*
X166948733Y-116926809D01*
X166663019Y-115736333D02*
X166663019Y-115641095D01*
X166663019Y-115641095D02*
X166710638Y-115545857D01*
X166710638Y-115545857D02*
X166758257Y-115498238D01*
X166758257Y-115498238D02*
X166853495Y-115450619D01*
X166853495Y-115450619D02*
X167043971Y-115403000D01*
X167043971Y-115403000D02*
X167282066Y-115403000D01*
X167282066Y-115403000D02*
X167472542Y-115450619D01*
X167472542Y-115450619D02*
X167567780Y-115498238D01*
X167567780Y-115498238D02*
X167615400Y-115545857D01*
X167615400Y-115545857D02*
X167663019Y-115641095D01*
X167663019Y-115641095D02*
X167663019Y-115736333D01*
X167663019Y-115736333D02*
X167615400Y-115831571D01*
X167615400Y-115831571D02*
X167567780Y-115879190D01*
X167567780Y-115879190D02*
X167472542Y-115926809D01*
X167472542Y-115926809D02*
X167282066Y-115974428D01*
X167282066Y-115974428D02*
X167043971Y-115974428D01*
X167043971Y-115974428D02*
X166853495Y-115926809D01*
X166853495Y-115926809D02*
X166758257Y-115879190D01*
X166758257Y-115879190D02*
X166710638Y-115831571D01*
X166710638Y-115831571D02*
X166663019Y-115736333D01*
X166663019Y-114783952D02*
X166663019Y-114688714D01*
X166663019Y-114688714D02*
X166710638Y-114593476D01*
X166710638Y-114593476D02*
X166758257Y-114545857D01*
X166758257Y-114545857D02*
X166853495Y-114498238D01*
X166853495Y-114498238D02*
X167043971Y-114450619D01*
X167043971Y-114450619D02*
X167282066Y-114450619D01*
X167282066Y-114450619D02*
X167472542Y-114498238D01*
X167472542Y-114498238D02*
X167567780Y-114545857D01*
X167567780Y-114545857D02*
X167615400Y-114593476D01*
X167615400Y-114593476D02*
X167663019Y-114688714D01*
X167663019Y-114688714D02*
X167663019Y-114783952D01*
X167663019Y-114783952D02*
X167615400Y-114879190D01*
X167615400Y-114879190D02*
X167567780Y-114926809D01*
X167567780Y-114926809D02*
X167472542Y-114974428D01*
X167472542Y-114974428D02*
X167282066Y-115022047D01*
X167282066Y-115022047D02*
X167043971Y-115022047D01*
X167043971Y-115022047D02*
X166853495Y-114974428D01*
X166853495Y-114974428D02*
X166758257Y-114926809D01*
X166758257Y-114926809D02*
X166710638Y-114879190D01*
X166710638Y-114879190D02*
X166663019Y-114783952D01*
X166996352Y-113593476D02*
X167663019Y-113593476D01*
X166996352Y-114022047D02*
X167520161Y-114022047D01*
X167520161Y-114022047D02*
X167615400Y-113974428D01*
X167615400Y-113974428D02*
X167663019Y-113879190D01*
X167663019Y-113879190D02*
X167663019Y-113736333D01*
X167663019Y-113736333D02*
X167615400Y-113641095D01*
X167615400Y-113641095D02*
X167567780Y-113593476D01*
X167139209Y-112783952D02*
X167139209Y-113117285D01*
X167663019Y-113117285D02*
X166663019Y-113117285D01*
X166663019Y-113117285D02*
X166663019Y-112641095D01*
X166615400Y-111545857D02*
X167901114Y-112402999D01*
X167663019Y-110688714D02*
X167663019Y-111260142D01*
X167663019Y-110974428D02*
X166663019Y-110974428D01*
X166663019Y-110974428D02*
X166805876Y-111069666D01*
X166805876Y-111069666D02*
X166901114Y-111164904D01*
X166901114Y-111164904D02*
X166948733Y-111260142D01*
X166663019Y-110069666D02*
X166663019Y-109974428D01*
X166663019Y-109974428D02*
X166710638Y-109879190D01*
X166710638Y-109879190D02*
X166758257Y-109831571D01*
X166758257Y-109831571D02*
X166853495Y-109783952D01*
X166853495Y-109783952D02*
X167043971Y-109736333D01*
X167043971Y-109736333D02*
X167282066Y-109736333D01*
X167282066Y-109736333D02*
X167472542Y-109783952D01*
X167472542Y-109783952D02*
X167567780Y-109831571D01*
X167567780Y-109831571D02*
X167615400Y-109879190D01*
X167615400Y-109879190D02*
X167663019Y-109974428D01*
X167663019Y-109974428D02*
X167663019Y-110069666D01*
X167663019Y-110069666D02*
X167615400Y-110164904D01*
X167615400Y-110164904D02*
X167567780Y-110212523D01*
X167567780Y-110212523D02*
X167472542Y-110260142D01*
X167472542Y-110260142D02*
X167282066Y-110307761D01*
X167282066Y-110307761D02*
X167043971Y-110307761D01*
X167043971Y-110307761D02*
X166853495Y-110260142D01*
X166853495Y-110260142D02*
X166758257Y-110212523D01*
X166758257Y-110212523D02*
X166710638Y-110164904D01*
X166710638Y-110164904D02*
X166663019Y-110069666D01*
X166663019Y-109450618D02*
X167663019Y-109117285D01*
X167663019Y-109117285D02*
X166663019Y-108783952D01*
X164265780Y-113819857D02*
X164313400Y-113867476D01*
X164313400Y-113867476D02*
X164361019Y-114010333D01*
X164361019Y-114010333D02*
X164361019Y-114105571D01*
X164361019Y-114105571D02*
X164313400Y-114248428D01*
X164313400Y-114248428D02*
X164218161Y-114343666D01*
X164218161Y-114343666D02*
X164122923Y-114391285D01*
X164122923Y-114391285D02*
X163932447Y-114438904D01*
X163932447Y-114438904D02*
X163789590Y-114438904D01*
X163789590Y-114438904D02*
X163599114Y-114391285D01*
X163599114Y-114391285D02*
X163503876Y-114343666D01*
X163503876Y-114343666D02*
X163408638Y-114248428D01*
X163408638Y-114248428D02*
X163361019Y-114105571D01*
X163361019Y-114105571D02*
X163361019Y-114010333D01*
X163361019Y-114010333D02*
X163408638Y-113867476D01*
X163408638Y-113867476D02*
X163456257Y-113819857D01*
X163456257Y-113438904D02*
X163408638Y-113391285D01*
X163408638Y-113391285D02*
X163361019Y-113296047D01*
X163361019Y-113296047D02*
X163361019Y-113057952D01*
X163361019Y-113057952D02*
X163408638Y-112962714D01*
X163408638Y-112962714D02*
X163456257Y-112915095D01*
X163456257Y-112915095D02*
X163551495Y-112867476D01*
X163551495Y-112867476D02*
X163646733Y-112867476D01*
X163646733Y-112867476D02*
X163789590Y-112915095D01*
X163789590Y-112915095D02*
X164361019Y-113486523D01*
X164361019Y-113486523D02*
X164361019Y-112867476D01*
X164361019Y-111915095D02*
X164361019Y-112486523D01*
X164361019Y-112200809D02*
X163361019Y-112200809D01*
X163361019Y-112200809D02*
X163503876Y-112296047D01*
X163503876Y-112296047D02*
X163599114Y-112391285D01*
X163599114Y-112391285D02*
X163646733Y-112486523D01*
X169197419Y-100369047D02*
X168197419Y-100369047D01*
X169197419Y-99797619D02*
X168625990Y-100226190D01*
X168197419Y-99797619D02*
X168768847Y-100369047D01*
X168673609Y-99369047D02*
X168673609Y-99035714D01*
X169197419Y-98892857D02*
X169197419Y-99369047D01*
X169197419Y-99369047D02*
X168197419Y-99369047D01*
X168197419Y-99369047D02*
X168197419Y-98892857D01*
X168721228Y-98273809D02*
X169197419Y-98273809D01*
X168197419Y-98607142D02*
X168721228Y-98273809D01*
X168721228Y-98273809D02*
X168197419Y-97940476D01*
X169197419Y-97083333D02*
X169197419Y-97654761D01*
X169197419Y-97369047D02*
X168197419Y-97369047D01*
X168197419Y-97369047D02*
X168340276Y-97464285D01*
X168340276Y-97464285D02*
X168435514Y-97559523D01*
X168435514Y-97559523D02*
X168483133Y-97654761D01*
X174149800Y-100083332D02*
X174197419Y-99940475D01*
X174197419Y-99940475D02*
X174197419Y-99702380D01*
X174197419Y-99702380D02*
X174149800Y-99607142D01*
X174149800Y-99607142D02*
X174102180Y-99559523D01*
X174102180Y-99559523D02*
X174006942Y-99511904D01*
X174006942Y-99511904D02*
X173911704Y-99511904D01*
X173911704Y-99511904D02*
X173816466Y-99559523D01*
X173816466Y-99559523D02*
X173768847Y-99607142D01*
X173768847Y-99607142D02*
X173721228Y-99702380D01*
X173721228Y-99702380D02*
X173673609Y-99892856D01*
X173673609Y-99892856D02*
X173625990Y-99988094D01*
X173625990Y-99988094D02*
X173578371Y-100035713D01*
X173578371Y-100035713D02*
X173483133Y-100083332D01*
X173483133Y-100083332D02*
X173387895Y-100083332D01*
X173387895Y-100083332D02*
X173292657Y-100035713D01*
X173292657Y-100035713D02*
X173245038Y-99988094D01*
X173245038Y-99988094D02*
X173197419Y-99892856D01*
X173197419Y-99892856D02*
X173197419Y-99654761D01*
X173197419Y-99654761D02*
X173245038Y-99511904D01*
X173197419Y-99178570D02*
X174197419Y-98940475D01*
X174197419Y-98940475D02*
X173483133Y-98749999D01*
X173483133Y-98749999D02*
X174197419Y-98559523D01*
X174197419Y-98559523D02*
X173197419Y-98321428D01*
X173292657Y-97988094D02*
X173245038Y-97940475D01*
X173245038Y-97940475D02*
X173197419Y-97845237D01*
X173197419Y-97845237D02*
X173197419Y-97607142D01*
X173197419Y-97607142D02*
X173245038Y-97511904D01*
X173245038Y-97511904D02*
X173292657Y-97464285D01*
X173292657Y-97464285D02*
X173387895Y-97416666D01*
X173387895Y-97416666D02*
X173483133Y-97416666D01*
X173483133Y-97416666D02*
X173625990Y-97464285D01*
X173625990Y-97464285D02*
X174197419Y-98035713D01*
X174197419Y-98035713D02*
X174197419Y-97416666D01*
X140418152Y-70198571D02*
X141084819Y-70198571D01*
X140037200Y-70436666D02*
X140751485Y-70674761D01*
X140751485Y-70674761D02*
X140751485Y-70055714D01*
X140989580Y-69674761D02*
X141037200Y-69627142D01*
X141037200Y-69627142D02*
X141084819Y-69674761D01*
X141084819Y-69674761D02*
X141037200Y-69722380D01*
X141037200Y-69722380D02*
X140989580Y-69674761D01*
X140989580Y-69674761D02*
X141084819Y-69674761D01*
X140084819Y-69293809D02*
X140084819Y-68627143D01*
X140084819Y-68627143D02*
X141084819Y-69055714D01*
X141084819Y-68246190D02*
X140084819Y-68246190D01*
X140703866Y-68150952D02*
X141084819Y-67865238D01*
X140418152Y-67865238D02*
X140799104Y-68246190D01*
X145954819Y-69211666D02*
X145478628Y-69544999D01*
X145954819Y-69783094D02*
X144954819Y-69783094D01*
X144954819Y-69783094D02*
X144954819Y-69402142D01*
X144954819Y-69402142D02*
X145002438Y-69306904D01*
X145002438Y-69306904D02*
X145050057Y-69259285D01*
X145050057Y-69259285D02*
X145145295Y-69211666D01*
X145145295Y-69211666D02*
X145288152Y-69211666D01*
X145288152Y-69211666D02*
X145383390Y-69259285D01*
X145383390Y-69259285D02*
X145431009Y-69306904D01*
X145431009Y-69306904D02*
X145478628Y-69402142D01*
X145478628Y-69402142D02*
X145478628Y-69783094D01*
X144954819Y-68354523D02*
X144954819Y-68544999D01*
X144954819Y-68544999D02*
X145002438Y-68640237D01*
X145002438Y-68640237D02*
X145050057Y-68687856D01*
X145050057Y-68687856D02*
X145192914Y-68783094D01*
X145192914Y-68783094D02*
X145383390Y-68830713D01*
X145383390Y-68830713D02*
X145764342Y-68830713D01*
X145764342Y-68830713D02*
X145859580Y-68783094D01*
X145859580Y-68783094D02*
X145907200Y-68735475D01*
X145907200Y-68735475D02*
X145954819Y-68640237D01*
X145954819Y-68640237D02*
X145954819Y-68449761D01*
X145954819Y-68449761D02*
X145907200Y-68354523D01*
X145907200Y-68354523D02*
X145859580Y-68306904D01*
X145859580Y-68306904D02*
X145764342Y-68259285D01*
X145764342Y-68259285D02*
X145526247Y-68259285D01*
X145526247Y-68259285D02*
X145431009Y-68306904D01*
X145431009Y-68306904D02*
X145383390Y-68354523D01*
X145383390Y-68354523D02*
X145335771Y-68449761D01*
X145335771Y-68449761D02*
X145335771Y-68640237D01*
X145335771Y-68640237D02*
X145383390Y-68735475D01*
X145383390Y-68735475D02*
X145431009Y-68783094D01*
X145431009Y-68783094D02*
X145526247Y-68830713D01*
X125584819Y-69865238D02*
X125584819Y-70436666D01*
X125584819Y-70150952D02*
X124584819Y-70150952D01*
X124584819Y-70150952D02*
X124727676Y-70246190D01*
X124727676Y-70246190D02*
X124822914Y-70341428D01*
X124822914Y-70341428D02*
X124870533Y-70436666D01*
X124584819Y-69246190D02*
X124584819Y-69150952D01*
X124584819Y-69150952D02*
X124632438Y-69055714D01*
X124632438Y-69055714D02*
X124680057Y-69008095D01*
X124680057Y-69008095D02*
X124775295Y-68960476D01*
X124775295Y-68960476D02*
X124965771Y-68912857D01*
X124965771Y-68912857D02*
X125203866Y-68912857D01*
X125203866Y-68912857D02*
X125394342Y-68960476D01*
X125394342Y-68960476D02*
X125489580Y-69008095D01*
X125489580Y-69008095D02*
X125537200Y-69055714D01*
X125537200Y-69055714D02*
X125584819Y-69150952D01*
X125584819Y-69150952D02*
X125584819Y-69246190D01*
X125584819Y-69246190D02*
X125537200Y-69341428D01*
X125537200Y-69341428D02*
X125489580Y-69389047D01*
X125489580Y-69389047D02*
X125394342Y-69436666D01*
X125394342Y-69436666D02*
X125203866Y-69484285D01*
X125203866Y-69484285D02*
X124965771Y-69484285D01*
X124965771Y-69484285D02*
X124775295Y-69436666D01*
X124775295Y-69436666D02*
X124680057Y-69389047D01*
X124680057Y-69389047D02*
X124632438Y-69341428D01*
X124632438Y-69341428D02*
X124584819Y-69246190D01*
X125584819Y-68484285D02*
X124584819Y-68484285D01*
X125203866Y-68389047D02*
X125584819Y-68103333D01*
X124918152Y-68103333D02*
X125299104Y-68484285D01*
X130324819Y-69436666D02*
X129848628Y-69769999D01*
X130324819Y-70008094D02*
X129324819Y-70008094D01*
X129324819Y-70008094D02*
X129324819Y-69627142D01*
X129324819Y-69627142D02*
X129372438Y-69531904D01*
X129372438Y-69531904D02*
X129420057Y-69484285D01*
X129420057Y-69484285D02*
X129515295Y-69436666D01*
X129515295Y-69436666D02*
X129658152Y-69436666D01*
X129658152Y-69436666D02*
X129753390Y-69484285D01*
X129753390Y-69484285D02*
X129801009Y-69531904D01*
X129801009Y-69531904D02*
X129848628Y-69627142D01*
X129848628Y-69627142D02*
X129848628Y-70008094D01*
X130324819Y-68960475D02*
X130324819Y-68769999D01*
X130324819Y-68769999D02*
X130277200Y-68674761D01*
X130277200Y-68674761D02*
X130229580Y-68627142D01*
X130229580Y-68627142D02*
X130086723Y-68531904D01*
X130086723Y-68531904D02*
X129896247Y-68484285D01*
X129896247Y-68484285D02*
X129515295Y-68484285D01*
X129515295Y-68484285D02*
X129420057Y-68531904D01*
X129420057Y-68531904D02*
X129372438Y-68579523D01*
X129372438Y-68579523D02*
X129324819Y-68674761D01*
X129324819Y-68674761D02*
X129324819Y-68865237D01*
X129324819Y-68865237D02*
X129372438Y-68960475D01*
X129372438Y-68960475D02*
X129420057Y-69008094D01*
X129420057Y-69008094D02*
X129515295Y-69055713D01*
X129515295Y-69055713D02*
X129753390Y-69055713D01*
X129753390Y-69055713D02*
X129848628Y-69008094D01*
X129848628Y-69008094D02*
X129896247Y-68960475D01*
X129896247Y-68960475D02*
X129943866Y-68865237D01*
X129943866Y-68865237D02*
X129943866Y-68674761D01*
X129943866Y-68674761D02*
X129896247Y-68579523D01*
X129896247Y-68579523D02*
X129848628Y-68531904D01*
X129848628Y-68531904D02*
X129753390Y-68484285D01*
X105738095Y-111954819D02*
X105261905Y-111954819D01*
X105261905Y-111954819D02*
X105261905Y-110954819D01*
X106071429Y-111431009D02*
X106404762Y-111431009D01*
X106547619Y-111954819D02*
X106071429Y-111954819D01*
X106071429Y-111954819D02*
X106071429Y-110954819D01*
X106071429Y-110954819D02*
X106547619Y-110954819D01*
X106976191Y-111954819D02*
X106976191Y-110954819D01*
X106976191Y-110954819D02*
X107214286Y-110954819D01*
X107214286Y-110954819D02*
X107357143Y-111002438D01*
X107357143Y-111002438D02*
X107452381Y-111097676D01*
X107452381Y-111097676D02*
X107500000Y-111192914D01*
X107500000Y-111192914D02*
X107547619Y-111383390D01*
X107547619Y-111383390D02*
X107547619Y-111526247D01*
X107547619Y-111526247D02*
X107500000Y-111716723D01*
X107500000Y-111716723D02*
X107452381Y-111811961D01*
X107452381Y-111811961D02*
X107357143Y-111907200D01*
X107357143Y-111907200D02*
X107214286Y-111954819D01*
X107214286Y-111954819D02*
X106976191Y-111954819D01*
X107738096Y-112050057D02*
X108500000Y-112050057D01*
X109023810Y-111859580D02*
X108595239Y-111907200D01*
X109119048Y-111954819D02*
X109833334Y-111954819D01*
X109119048Y-111002438D02*
X109785715Y-111002438D01*
X109452381Y-111002438D02*
X109452381Y-111954819D01*
X108880953Y-110859580D02*
X108642858Y-111335771D01*
X108642858Y-111335771D02*
X108928572Y-111240533D01*
X109023810Y-111145295D02*
X108595239Y-111669104D01*
X108595239Y-111669104D02*
X109023810Y-111621485D01*
D11*
X106909524Y-106958855D02*
X106909524Y-106158855D01*
X106909524Y-106158855D02*
X107100000Y-106158855D01*
X107100000Y-106158855D02*
X107214286Y-106196950D01*
X107214286Y-106196950D02*
X107290476Y-106273140D01*
X107290476Y-106273140D02*
X107328571Y-106349331D01*
X107328571Y-106349331D02*
X107366667Y-106501712D01*
X107366667Y-106501712D02*
X107366667Y-106615998D01*
X107366667Y-106615998D02*
X107328571Y-106768379D01*
X107328571Y-106768379D02*
X107290476Y-106844569D01*
X107290476Y-106844569D02*
X107214286Y-106920760D01*
X107214286Y-106920760D02*
X107100000Y-106958855D01*
X107100000Y-106958855D02*
X106909524Y-106958855D01*
X107671428Y-106235045D02*
X107709524Y-106196950D01*
X107709524Y-106196950D02*
X107785714Y-106158855D01*
X107785714Y-106158855D02*
X107976190Y-106158855D01*
X107976190Y-106158855D02*
X108052381Y-106196950D01*
X108052381Y-106196950D02*
X108090476Y-106235045D01*
X108090476Y-106235045D02*
X108128571Y-106311236D01*
X108128571Y-106311236D02*
X108128571Y-106387426D01*
X108128571Y-106387426D02*
X108090476Y-106501712D01*
X108090476Y-106501712D02*
X107633333Y-106958855D01*
X107633333Y-106958855D02*
X108128571Y-106958855D01*
D10*
X158955028Y-108305209D02*
X159097885Y-108352828D01*
X159097885Y-108352828D02*
X159145504Y-108400447D01*
X159145504Y-108400447D02*
X159193123Y-108495685D01*
X159193123Y-108495685D02*
X159193123Y-108638542D01*
X159193123Y-108638542D02*
X159145504Y-108733780D01*
X159145504Y-108733780D02*
X159097885Y-108781400D01*
X159097885Y-108781400D02*
X159002647Y-108829019D01*
X159002647Y-108829019D02*
X158621695Y-108829019D01*
X158621695Y-108829019D02*
X158621695Y-107829019D01*
X158621695Y-107829019D02*
X158955028Y-107829019D01*
X158955028Y-107829019D02*
X159050266Y-107876638D01*
X159050266Y-107876638D02*
X159097885Y-107924257D01*
X159097885Y-107924257D02*
X159145504Y-108019495D01*
X159145504Y-108019495D02*
X159145504Y-108114733D01*
X159145504Y-108114733D02*
X159097885Y-108209971D01*
X159097885Y-108209971D02*
X159050266Y-108257590D01*
X159050266Y-108257590D02*
X158955028Y-108305209D01*
X158955028Y-108305209D02*
X158621695Y-108305209D01*
X160050266Y-108162352D02*
X160050266Y-108829019D01*
X159621695Y-108162352D02*
X159621695Y-108686161D01*
X159621695Y-108686161D02*
X159669314Y-108781400D01*
X159669314Y-108781400D02*
X159764552Y-108829019D01*
X159764552Y-108829019D02*
X159907409Y-108829019D01*
X159907409Y-108829019D02*
X160002647Y-108781400D01*
X160002647Y-108781400D02*
X160050266Y-108733780D01*
X160431219Y-108162352D02*
X160955028Y-108162352D01*
X160955028Y-108162352D02*
X160431219Y-108829019D01*
X160431219Y-108829019D02*
X160955028Y-108829019D01*
X161240743Y-108162352D02*
X161764552Y-108162352D01*
X161764552Y-108162352D02*
X161240743Y-108829019D01*
X161240743Y-108829019D02*
X161764552Y-108829019D01*
X162526457Y-108781400D02*
X162431219Y-108829019D01*
X162431219Y-108829019D02*
X162240743Y-108829019D01*
X162240743Y-108829019D02*
X162145505Y-108781400D01*
X162145505Y-108781400D02*
X162097886Y-108686161D01*
X162097886Y-108686161D02*
X162097886Y-108305209D01*
X162097886Y-108305209D02*
X162145505Y-108209971D01*
X162145505Y-108209971D02*
X162240743Y-108162352D01*
X162240743Y-108162352D02*
X162431219Y-108162352D01*
X162431219Y-108162352D02*
X162526457Y-108209971D01*
X162526457Y-108209971D02*
X162574076Y-108305209D01*
X162574076Y-108305209D02*
X162574076Y-108400447D01*
X162574076Y-108400447D02*
X162097886Y-108495685D01*
X163002648Y-108829019D02*
X163002648Y-108162352D01*
X163002648Y-108352828D02*
X163050267Y-108257590D01*
X163050267Y-108257590D02*
X163097886Y-108209971D01*
X163097886Y-108209971D02*
X163193124Y-108162352D01*
X163193124Y-108162352D02*
X163288362Y-108162352D01*
X161338419Y-104097057D02*
X161338419Y-104573247D01*
X161338419Y-104573247D02*
X160338419Y-104573247D01*
X161290800Y-103811342D02*
X161338419Y-103668485D01*
X161338419Y-103668485D02*
X161338419Y-103430390D01*
X161338419Y-103430390D02*
X161290800Y-103335152D01*
X161290800Y-103335152D02*
X161243180Y-103287533D01*
X161243180Y-103287533D02*
X161147942Y-103239914D01*
X161147942Y-103239914D02*
X161052704Y-103239914D01*
X161052704Y-103239914D02*
X160957466Y-103287533D01*
X160957466Y-103287533D02*
X160909847Y-103335152D01*
X160909847Y-103335152D02*
X160862228Y-103430390D01*
X160862228Y-103430390D02*
X160814609Y-103620866D01*
X160814609Y-103620866D02*
X160766990Y-103716104D01*
X160766990Y-103716104D02*
X160719371Y-103763723D01*
X160719371Y-103763723D02*
X160624133Y-103811342D01*
X160624133Y-103811342D02*
X160528895Y-103811342D01*
X160528895Y-103811342D02*
X160433657Y-103763723D01*
X160433657Y-103763723D02*
X160386038Y-103716104D01*
X160386038Y-103716104D02*
X160338419Y-103620866D01*
X160338419Y-103620866D02*
X160338419Y-103382771D01*
X160338419Y-103382771D02*
X160386038Y-103239914D01*
X161338419Y-102287533D02*
X161338419Y-102858961D01*
X161338419Y-102573247D02*
X160338419Y-102573247D01*
X160338419Y-102573247D02*
X160481276Y-102668485D01*
X160481276Y-102668485D02*
X160576514Y-102763723D01*
X160576514Y-102763723D02*
X160624133Y-102858961D01*
X113824819Y-100060713D02*
X113824819Y-99441666D01*
X113824819Y-99441666D02*
X114205771Y-99774999D01*
X114205771Y-99774999D02*
X114205771Y-99632142D01*
X114205771Y-99632142D02*
X114253390Y-99536904D01*
X114253390Y-99536904D02*
X114301009Y-99489285D01*
X114301009Y-99489285D02*
X114396247Y-99441666D01*
X114396247Y-99441666D02*
X114634342Y-99441666D01*
X114634342Y-99441666D02*
X114729580Y-99489285D01*
X114729580Y-99489285D02*
X114777200Y-99536904D01*
X114777200Y-99536904D02*
X114824819Y-99632142D01*
X114824819Y-99632142D02*
X114824819Y-99917856D01*
X114824819Y-99917856D02*
X114777200Y-100013094D01*
X114777200Y-100013094D02*
X114729580Y-100060713D01*
X113824819Y-99108332D02*
X113824819Y-98489285D01*
X113824819Y-98489285D02*
X114205771Y-98822618D01*
X114205771Y-98822618D02*
X114205771Y-98679761D01*
X114205771Y-98679761D02*
X114253390Y-98584523D01*
X114253390Y-98584523D02*
X114301009Y-98536904D01*
X114301009Y-98536904D02*
X114396247Y-98489285D01*
X114396247Y-98489285D02*
X114634342Y-98489285D01*
X114634342Y-98489285D02*
X114729580Y-98536904D01*
X114729580Y-98536904D02*
X114777200Y-98584523D01*
X114777200Y-98584523D02*
X114824819Y-98679761D01*
X114824819Y-98679761D02*
X114824819Y-98965475D01*
X114824819Y-98965475D02*
X114777200Y-99060713D01*
X114777200Y-99060713D02*
X114729580Y-99108332D01*
X113824819Y-97870237D02*
X113824819Y-97774999D01*
X113824819Y-97774999D02*
X113872438Y-97679761D01*
X113872438Y-97679761D02*
X113920057Y-97632142D01*
X113920057Y-97632142D02*
X114015295Y-97584523D01*
X114015295Y-97584523D02*
X114205771Y-97536904D01*
X114205771Y-97536904D02*
X114443866Y-97536904D01*
X114443866Y-97536904D02*
X114634342Y-97584523D01*
X114634342Y-97584523D02*
X114729580Y-97632142D01*
X114729580Y-97632142D02*
X114777200Y-97679761D01*
X114777200Y-97679761D02*
X114824819Y-97774999D01*
X114824819Y-97774999D02*
X114824819Y-97870237D01*
X114824819Y-97870237D02*
X114777200Y-97965475D01*
X114777200Y-97965475D02*
X114729580Y-98013094D01*
X114729580Y-98013094D02*
X114634342Y-98060713D01*
X114634342Y-98060713D02*
X114443866Y-98108332D01*
X114443866Y-98108332D02*
X114205771Y-98108332D01*
X114205771Y-98108332D02*
X114015295Y-98060713D01*
X114015295Y-98060713D02*
X113920057Y-98013094D01*
X113920057Y-98013094D02*
X113872438Y-97965475D01*
X113872438Y-97965475D02*
X113824819Y-97870237D01*
X110084819Y-99417857D02*
X109608628Y-99751190D01*
X110084819Y-99989285D02*
X109084819Y-99989285D01*
X109084819Y-99989285D02*
X109084819Y-99608333D01*
X109084819Y-99608333D02*
X109132438Y-99513095D01*
X109132438Y-99513095D02*
X109180057Y-99465476D01*
X109180057Y-99465476D02*
X109275295Y-99417857D01*
X109275295Y-99417857D02*
X109418152Y-99417857D01*
X109418152Y-99417857D02*
X109513390Y-99465476D01*
X109513390Y-99465476D02*
X109561009Y-99513095D01*
X109561009Y-99513095D02*
X109608628Y-99608333D01*
X109608628Y-99608333D02*
X109608628Y-99989285D01*
X110084819Y-98465476D02*
X110084819Y-99036904D01*
X110084819Y-98751190D02*
X109084819Y-98751190D01*
X109084819Y-98751190D02*
X109227676Y-98846428D01*
X109227676Y-98846428D02*
X109322914Y-98941666D01*
X109322914Y-98941666D02*
X109370533Y-99036904D01*
X110084819Y-97513095D02*
X110084819Y-98084523D01*
X110084819Y-97798809D02*
X109084819Y-97798809D01*
X109084819Y-97798809D02*
X109227676Y-97894047D01*
X109227676Y-97894047D02*
X109322914Y-97989285D01*
X109322914Y-97989285D02*
X109370533Y-98084523D01*
X125937609Y-107213256D02*
X125937609Y-106879923D01*
X126461419Y-106737066D02*
X126461419Y-107213256D01*
X126461419Y-107213256D02*
X125461419Y-107213256D01*
X125461419Y-107213256D02*
X125461419Y-106737066D01*
X126413800Y-106356113D02*
X126461419Y-106213256D01*
X126461419Y-106213256D02*
X126461419Y-105975161D01*
X126461419Y-105975161D02*
X126413800Y-105879923D01*
X126413800Y-105879923D02*
X126366180Y-105832304D01*
X126366180Y-105832304D02*
X126270942Y-105784685D01*
X126270942Y-105784685D02*
X126175704Y-105784685D01*
X126175704Y-105784685D02*
X126080466Y-105832304D01*
X126080466Y-105832304D02*
X126032847Y-105879923D01*
X126032847Y-105879923D02*
X125985228Y-105975161D01*
X125985228Y-105975161D02*
X125937609Y-106165637D01*
X125937609Y-106165637D02*
X125889990Y-106260875D01*
X125889990Y-106260875D02*
X125842371Y-106308494D01*
X125842371Y-106308494D02*
X125747133Y-106356113D01*
X125747133Y-106356113D02*
X125651895Y-106356113D01*
X125651895Y-106356113D02*
X125556657Y-106308494D01*
X125556657Y-106308494D02*
X125509038Y-106260875D01*
X125509038Y-106260875D02*
X125461419Y-106165637D01*
X125461419Y-106165637D02*
X125461419Y-105927542D01*
X125461419Y-105927542D02*
X125509038Y-105784685D01*
X126461419Y-105356113D02*
X125461419Y-105356113D01*
X125461419Y-105356113D02*
X125461419Y-104975161D01*
X125461419Y-104975161D02*
X125509038Y-104879923D01*
X125509038Y-104879923D02*
X125556657Y-104832304D01*
X125556657Y-104832304D02*
X125651895Y-104784685D01*
X125651895Y-104784685D02*
X125794752Y-104784685D01*
X125794752Y-104784685D02*
X125889990Y-104832304D01*
X125889990Y-104832304D02*
X125937609Y-104879923D01*
X125937609Y-104879923D02*
X125985228Y-104975161D01*
X125985228Y-104975161D02*
X125985228Y-105356113D01*
X125889990Y-104213256D02*
X125842371Y-104308494D01*
X125842371Y-104308494D02*
X125794752Y-104356113D01*
X125794752Y-104356113D02*
X125699514Y-104403732D01*
X125699514Y-104403732D02*
X125651895Y-104403732D01*
X125651895Y-104403732D02*
X125556657Y-104356113D01*
X125556657Y-104356113D02*
X125509038Y-104308494D01*
X125509038Y-104308494D02*
X125461419Y-104213256D01*
X125461419Y-104213256D02*
X125461419Y-104022780D01*
X125461419Y-104022780D02*
X125509038Y-103927542D01*
X125509038Y-103927542D02*
X125556657Y-103879923D01*
X125556657Y-103879923D02*
X125651895Y-103832304D01*
X125651895Y-103832304D02*
X125699514Y-103832304D01*
X125699514Y-103832304D02*
X125794752Y-103879923D01*
X125794752Y-103879923D02*
X125842371Y-103927542D01*
X125842371Y-103927542D02*
X125889990Y-104022780D01*
X125889990Y-104022780D02*
X125889990Y-104213256D01*
X125889990Y-104213256D02*
X125937609Y-104308494D01*
X125937609Y-104308494D02*
X125985228Y-104356113D01*
X125985228Y-104356113D02*
X126080466Y-104403732D01*
X126080466Y-104403732D02*
X126270942Y-104403732D01*
X126270942Y-104403732D02*
X126366180Y-104356113D01*
X126366180Y-104356113D02*
X126413800Y-104308494D01*
X126413800Y-104308494D02*
X126461419Y-104213256D01*
X126461419Y-104213256D02*
X126461419Y-104022780D01*
X126461419Y-104022780D02*
X126413800Y-103927542D01*
X126413800Y-103927542D02*
X126366180Y-103879923D01*
X126366180Y-103879923D02*
X126270942Y-103832304D01*
X126270942Y-103832304D02*
X126080466Y-103832304D01*
X126080466Y-103832304D02*
X125985228Y-103879923D01*
X125985228Y-103879923D02*
X125937609Y-103927542D01*
X125937609Y-103927542D02*
X125889990Y-104022780D01*
X125556657Y-103451351D02*
X125509038Y-103403732D01*
X125509038Y-103403732D02*
X125461419Y-103308494D01*
X125461419Y-103308494D02*
X125461419Y-103070399D01*
X125461419Y-103070399D02*
X125509038Y-102975161D01*
X125509038Y-102975161D02*
X125556657Y-102927542D01*
X125556657Y-102927542D02*
X125651895Y-102879923D01*
X125651895Y-102879923D02*
X125747133Y-102879923D01*
X125747133Y-102879923D02*
X125889990Y-102927542D01*
X125889990Y-102927542D02*
X126461419Y-103498970D01*
X126461419Y-103498970D02*
X126461419Y-102879923D01*
X125461419Y-102022780D02*
X125461419Y-102213256D01*
X125461419Y-102213256D02*
X125509038Y-102308494D01*
X125509038Y-102308494D02*
X125556657Y-102356113D01*
X125556657Y-102356113D02*
X125699514Y-102451351D01*
X125699514Y-102451351D02*
X125889990Y-102498970D01*
X125889990Y-102498970D02*
X126270942Y-102498970D01*
X126270942Y-102498970D02*
X126366180Y-102451351D01*
X126366180Y-102451351D02*
X126413800Y-102403732D01*
X126413800Y-102403732D02*
X126461419Y-102308494D01*
X126461419Y-102308494D02*
X126461419Y-102118018D01*
X126461419Y-102118018D02*
X126413800Y-102022780D01*
X126413800Y-102022780D02*
X126366180Y-101975161D01*
X126366180Y-101975161D02*
X126270942Y-101927542D01*
X126270942Y-101927542D02*
X126032847Y-101927542D01*
X126032847Y-101927542D02*
X125937609Y-101975161D01*
X125937609Y-101975161D02*
X125889990Y-102022780D01*
X125889990Y-102022780D02*
X125842371Y-102118018D01*
X125842371Y-102118018D02*
X125842371Y-102308494D01*
X125842371Y-102308494D02*
X125889990Y-102403732D01*
X125889990Y-102403732D02*
X125937609Y-102451351D01*
X125937609Y-102451351D02*
X126032847Y-102498970D01*
X125461419Y-101070399D02*
X125461419Y-101260875D01*
X125461419Y-101260875D02*
X125509038Y-101356113D01*
X125509038Y-101356113D02*
X125556657Y-101403732D01*
X125556657Y-101403732D02*
X125699514Y-101498970D01*
X125699514Y-101498970D02*
X125889990Y-101546589D01*
X125889990Y-101546589D02*
X126270942Y-101546589D01*
X126270942Y-101546589D02*
X126366180Y-101498970D01*
X126366180Y-101498970D02*
X126413800Y-101451351D01*
X126413800Y-101451351D02*
X126461419Y-101356113D01*
X126461419Y-101356113D02*
X126461419Y-101165637D01*
X126461419Y-101165637D02*
X126413800Y-101070399D01*
X126413800Y-101070399D02*
X126366180Y-101022780D01*
X126366180Y-101022780D02*
X126270942Y-100975161D01*
X126270942Y-100975161D02*
X126032847Y-100975161D01*
X126032847Y-100975161D02*
X125937609Y-101022780D01*
X125937609Y-101022780D02*
X125889990Y-101070399D01*
X125889990Y-101070399D02*
X125842371Y-101165637D01*
X125842371Y-101165637D02*
X125842371Y-101356113D01*
X125842371Y-101356113D02*
X125889990Y-101451351D01*
X125889990Y-101451351D02*
X125937609Y-101498970D01*
X125937609Y-101498970D02*
X126032847Y-101546589D01*
X126080466Y-100546589D02*
X126080466Y-99784685D01*
X125461419Y-99118018D02*
X125461419Y-99022780D01*
X125461419Y-99022780D02*
X125509038Y-98927542D01*
X125509038Y-98927542D02*
X125556657Y-98879923D01*
X125556657Y-98879923D02*
X125651895Y-98832304D01*
X125651895Y-98832304D02*
X125842371Y-98784685D01*
X125842371Y-98784685D02*
X126080466Y-98784685D01*
X126080466Y-98784685D02*
X126270942Y-98832304D01*
X126270942Y-98832304D02*
X126366180Y-98879923D01*
X126366180Y-98879923D02*
X126413800Y-98927542D01*
X126413800Y-98927542D02*
X126461419Y-99022780D01*
X126461419Y-99022780D02*
X126461419Y-99118018D01*
X126461419Y-99118018D02*
X126413800Y-99213256D01*
X126413800Y-99213256D02*
X126366180Y-99260875D01*
X126366180Y-99260875D02*
X126270942Y-99308494D01*
X126270942Y-99308494D02*
X126080466Y-99356113D01*
X126080466Y-99356113D02*
X125842371Y-99356113D01*
X125842371Y-99356113D02*
X125651895Y-99308494D01*
X125651895Y-99308494D02*
X125556657Y-99260875D01*
X125556657Y-99260875D02*
X125509038Y-99213256D01*
X125509038Y-99213256D02*
X125461419Y-99118018D01*
X126461419Y-97832304D02*
X126461419Y-98403732D01*
X126461419Y-98118018D02*
X125461419Y-98118018D01*
X125461419Y-98118018D02*
X125604276Y-98213256D01*
X125604276Y-98213256D02*
X125699514Y-98308494D01*
X125699514Y-98308494D02*
X125747133Y-98403732D01*
X126413800Y-97451351D02*
X126461419Y-97308494D01*
X126461419Y-97308494D02*
X126461419Y-97070399D01*
X126461419Y-97070399D02*
X126413800Y-96975161D01*
X126413800Y-96975161D02*
X126366180Y-96927542D01*
X126366180Y-96927542D02*
X126270942Y-96879923D01*
X126270942Y-96879923D02*
X126175704Y-96879923D01*
X126175704Y-96879923D02*
X126080466Y-96927542D01*
X126080466Y-96927542D02*
X126032847Y-96975161D01*
X126032847Y-96975161D02*
X125985228Y-97070399D01*
X125985228Y-97070399D02*
X125937609Y-97260875D01*
X125937609Y-97260875D02*
X125889990Y-97356113D01*
X125889990Y-97356113D02*
X125842371Y-97403732D01*
X125842371Y-97403732D02*
X125747133Y-97451351D01*
X125747133Y-97451351D02*
X125651895Y-97451351D01*
X125651895Y-97451351D02*
X125556657Y-97403732D01*
X125556657Y-97403732D02*
X125509038Y-97356113D01*
X125509038Y-97356113D02*
X125461419Y-97260875D01*
X125461419Y-97260875D02*
X125461419Y-97022780D01*
X125461419Y-97022780D02*
X125509038Y-96879923D01*
X129731419Y-102593733D02*
X130445704Y-102593733D01*
X130445704Y-102593733D02*
X130588561Y-102641352D01*
X130588561Y-102641352D02*
X130683800Y-102736590D01*
X130683800Y-102736590D02*
X130731419Y-102879447D01*
X130731419Y-102879447D02*
X130731419Y-102974685D01*
X129731419Y-101641352D02*
X129731419Y-102117542D01*
X129731419Y-102117542D02*
X130207609Y-102165161D01*
X130207609Y-102165161D02*
X130159990Y-102117542D01*
X130159990Y-102117542D02*
X130112371Y-102022304D01*
X130112371Y-102022304D02*
X130112371Y-101784209D01*
X130112371Y-101784209D02*
X130159990Y-101688971D01*
X130159990Y-101688971D02*
X130207609Y-101641352D01*
X130207609Y-101641352D02*
X130302847Y-101593733D01*
X130302847Y-101593733D02*
X130540942Y-101593733D01*
X130540942Y-101593733D02*
X130636180Y-101641352D01*
X130636180Y-101641352D02*
X130683800Y-101688971D01*
X130683800Y-101688971D02*
X130731419Y-101784209D01*
X130731419Y-101784209D02*
X130731419Y-102022304D01*
X130731419Y-102022304D02*
X130683800Y-102117542D01*
X130683800Y-102117542D02*
X130636180Y-102165161D01*
X104805619Y-71760932D02*
X103805619Y-71760932D01*
X104281809Y-71760932D02*
X104281809Y-71189504D01*
X104805619Y-71189504D02*
X103805619Y-71189504D01*
X104710380Y-70141885D02*
X104758000Y-70189504D01*
X104758000Y-70189504D02*
X104805619Y-70332361D01*
X104805619Y-70332361D02*
X104805619Y-70427599D01*
X104805619Y-70427599D02*
X104758000Y-70570456D01*
X104758000Y-70570456D02*
X104662761Y-70665694D01*
X104662761Y-70665694D02*
X104567523Y-70713313D01*
X104567523Y-70713313D02*
X104377047Y-70760932D01*
X104377047Y-70760932D02*
X104234190Y-70760932D01*
X104234190Y-70760932D02*
X104043714Y-70713313D01*
X104043714Y-70713313D02*
X103948476Y-70665694D01*
X103948476Y-70665694D02*
X103853238Y-70570456D01*
X103853238Y-70570456D02*
X103805619Y-70427599D01*
X103805619Y-70427599D02*
X103805619Y-70332361D01*
X103805619Y-70332361D02*
X103853238Y-70189504D01*
X103853238Y-70189504D02*
X103900857Y-70141885D01*
X104424666Y-69713313D02*
X104424666Y-68951409D01*
X104758000Y-68522837D02*
X104805619Y-68379980D01*
X104805619Y-68379980D02*
X104805619Y-68141885D01*
X104805619Y-68141885D02*
X104758000Y-68046647D01*
X104758000Y-68046647D02*
X104710380Y-67999028D01*
X104710380Y-67999028D02*
X104615142Y-67951409D01*
X104615142Y-67951409D02*
X104519904Y-67951409D01*
X104519904Y-67951409D02*
X104424666Y-67999028D01*
X104424666Y-67999028D02*
X104377047Y-68046647D01*
X104377047Y-68046647D02*
X104329428Y-68141885D01*
X104329428Y-68141885D02*
X104281809Y-68332361D01*
X104281809Y-68332361D02*
X104234190Y-68427599D01*
X104234190Y-68427599D02*
X104186571Y-68475218D01*
X104186571Y-68475218D02*
X104091333Y-68522837D01*
X104091333Y-68522837D02*
X103996095Y-68522837D01*
X103996095Y-68522837D02*
X103900857Y-68475218D01*
X103900857Y-68475218D02*
X103853238Y-68427599D01*
X103853238Y-68427599D02*
X103805619Y-68332361D01*
X103805619Y-68332361D02*
X103805619Y-68094266D01*
X103805619Y-68094266D02*
X103853238Y-67951409D01*
X104805619Y-66951409D02*
X104329428Y-67284742D01*
X104805619Y-67522837D02*
X103805619Y-67522837D01*
X103805619Y-67522837D02*
X103805619Y-67141885D01*
X103805619Y-67141885D02*
X103853238Y-67046647D01*
X103853238Y-67046647D02*
X103900857Y-66999028D01*
X103900857Y-66999028D02*
X103996095Y-66951409D01*
X103996095Y-66951409D02*
X104138952Y-66951409D01*
X104138952Y-66951409D02*
X104234190Y-66999028D01*
X104234190Y-66999028D02*
X104281809Y-67046647D01*
X104281809Y-67046647D02*
X104329428Y-67141885D01*
X104329428Y-67141885D02*
X104329428Y-67522837D01*
X103805619Y-66332361D02*
X103805619Y-66237123D01*
X103805619Y-66237123D02*
X103853238Y-66141885D01*
X103853238Y-66141885D02*
X103900857Y-66094266D01*
X103900857Y-66094266D02*
X103996095Y-66046647D01*
X103996095Y-66046647D02*
X104186571Y-65999028D01*
X104186571Y-65999028D02*
X104424666Y-65999028D01*
X104424666Y-65999028D02*
X104615142Y-66046647D01*
X104615142Y-66046647D02*
X104710380Y-66094266D01*
X104710380Y-66094266D02*
X104758000Y-66141885D01*
X104758000Y-66141885D02*
X104805619Y-66237123D01*
X104805619Y-66237123D02*
X104805619Y-66332361D01*
X104805619Y-66332361D02*
X104758000Y-66427599D01*
X104758000Y-66427599D02*
X104710380Y-66475218D01*
X104710380Y-66475218D02*
X104615142Y-66522837D01*
X104615142Y-66522837D02*
X104424666Y-66570456D01*
X104424666Y-66570456D02*
X104186571Y-66570456D01*
X104186571Y-66570456D02*
X103996095Y-66522837D01*
X103996095Y-66522837D02*
X103900857Y-66475218D01*
X103900857Y-66475218D02*
X103853238Y-66427599D01*
X103853238Y-66427599D02*
X103805619Y-66332361D01*
X104138952Y-65141885D02*
X104805619Y-65141885D01*
X103758000Y-65379980D02*
X104472285Y-65618075D01*
X104472285Y-65618075D02*
X104472285Y-64999028D01*
X110207466Y-67882419D02*
X110207466Y-68596704D01*
X110207466Y-68596704D02*
X110159847Y-68739561D01*
X110159847Y-68739561D02*
X110064609Y-68834800D01*
X110064609Y-68834800D02*
X109921752Y-68882419D01*
X109921752Y-68882419D02*
X109826514Y-68882419D01*
X111112228Y-68215752D02*
X111112228Y-68882419D01*
X110874133Y-67834800D02*
X110636038Y-68549085D01*
X110636038Y-68549085D02*
X111255085Y-68549085D01*
X160639580Y-93968572D02*
X160687200Y-94016191D01*
X160687200Y-94016191D02*
X160734819Y-94159048D01*
X160734819Y-94159048D02*
X160734819Y-94254286D01*
X160734819Y-94254286D02*
X160687200Y-94397143D01*
X160687200Y-94397143D02*
X160591961Y-94492381D01*
X160591961Y-94492381D02*
X160496723Y-94540000D01*
X160496723Y-94540000D02*
X160306247Y-94587619D01*
X160306247Y-94587619D02*
X160163390Y-94587619D01*
X160163390Y-94587619D02*
X159972914Y-94540000D01*
X159972914Y-94540000D02*
X159877676Y-94492381D01*
X159877676Y-94492381D02*
X159782438Y-94397143D01*
X159782438Y-94397143D02*
X159734819Y-94254286D01*
X159734819Y-94254286D02*
X159734819Y-94159048D01*
X159734819Y-94159048D02*
X159782438Y-94016191D01*
X159782438Y-94016191D02*
X159830057Y-93968572D01*
X160734819Y-93397143D02*
X160687200Y-93492381D01*
X160687200Y-93492381D02*
X160639580Y-93540000D01*
X160639580Y-93540000D02*
X160544342Y-93587619D01*
X160544342Y-93587619D02*
X160258628Y-93587619D01*
X160258628Y-93587619D02*
X160163390Y-93540000D01*
X160163390Y-93540000D02*
X160115771Y-93492381D01*
X160115771Y-93492381D02*
X160068152Y-93397143D01*
X160068152Y-93397143D02*
X160068152Y-93254286D01*
X160068152Y-93254286D02*
X160115771Y-93159048D01*
X160115771Y-93159048D02*
X160163390Y-93111429D01*
X160163390Y-93111429D02*
X160258628Y-93063810D01*
X160258628Y-93063810D02*
X160544342Y-93063810D01*
X160544342Y-93063810D02*
X160639580Y-93111429D01*
X160639580Y-93111429D02*
X160687200Y-93159048D01*
X160687200Y-93159048D02*
X160734819Y-93254286D01*
X160734819Y-93254286D02*
X160734819Y-93397143D01*
X160734819Y-92635238D02*
X160068152Y-92635238D01*
X160258628Y-92635238D02*
X160163390Y-92587619D01*
X160163390Y-92587619D02*
X160115771Y-92540000D01*
X160115771Y-92540000D02*
X160068152Y-92444762D01*
X160068152Y-92444762D02*
X160068152Y-92349524D01*
X160687200Y-91635238D02*
X160734819Y-91730476D01*
X160734819Y-91730476D02*
X160734819Y-91920952D01*
X160734819Y-91920952D02*
X160687200Y-92016190D01*
X160687200Y-92016190D02*
X160591961Y-92063809D01*
X160591961Y-92063809D02*
X160211009Y-92063809D01*
X160211009Y-92063809D02*
X160115771Y-92016190D01*
X160115771Y-92016190D02*
X160068152Y-91920952D01*
X160068152Y-91920952D02*
X160068152Y-91730476D01*
X160068152Y-91730476D02*
X160115771Y-91635238D01*
X160115771Y-91635238D02*
X160211009Y-91587619D01*
X160211009Y-91587619D02*
X160306247Y-91587619D01*
X160306247Y-91587619D02*
X160401485Y-92063809D01*
X160211009Y-90825714D02*
X160258628Y-90682857D01*
X160258628Y-90682857D02*
X160306247Y-90635238D01*
X160306247Y-90635238D02*
X160401485Y-90587619D01*
X160401485Y-90587619D02*
X160544342Y-90587619D01*
X160544342Y-90587619D02*
X160639580Y-90635238D01*
X160639580Y-90635238D02*
X160687200Y-90682857D01*
X160687200Y-90682857D02*
X160734819Y-90778095D01*
X160734819Y-90778095D02*
X160734819Y-91159047D01*
X160734819Y-91159047D02*
X159734819Y-91159047D01*
X159734819Y-91159047D02*
X159734819Y-90825714D01*
X159734819Y-90825714D02*
X159782438Y-90730476D01*
X159782438Y-90730476D02*
X159830057Y-90682857D01*
X159830057Y-90682857D02*
X159925295Y-90635238D01*
X159925295Y-90635238D02*
X160020533Y-90635238D01*
X160020533Y-90635238D02*
X160115771Y-90682857D01*
X160115771Y-90682857D02*
X160163390Y-90730476D01*
X160163390Y-90730476D02*
X160211009Y-90825714D01*
X160211009Y-90825714D02*
X160211009Y-91159047D01*
X160734819Y-90016190D02*
X160687200Y-90111428D01*
X160687200Y-90111428D02*
X160639580Y-90159047D01*
X160639580Y-90159047D02*
X160544342Y-90206666D01*
X160544342Y-90206666D02*
X160258628Y-90206666D01*
X160258628Y-90206666D02*
X160163390Y-90159047D01*
X160163390Y-90159047D02*
X160115771Y-90111428D01*
X160115771Y-90111428D02*
X160068152Y-90016190D01*
X160068152Y-90016190D02*
X160068152Y-89873333D01*
X160068152Y-89873333D02*
X160115771Y-89778095D01*
X160115771Y-89778095D02*
X160163390Y-89730476D01*
X160163390Y-89730476D02*
X160258628Y-89682857D01*
X160258628Y-89682857D02*
X160544342Y-89682857D01*
X160544342Y-89682857D02*
X160639580Y-89730476D01*
X160639580Y-89730476D02*
X160687200Y-89778095D01*
X160687200Y-89778095D02*
X160734819Y-89873333D01*
X160734819Y-89873333D02*
X160734819Y-90016190D01*
X160734819Y-88825714D02*
X160211009Y-88825714D01*
X160211009Y-88825714D02*
X160115771Y-88873333D01*
X160115771Y-88873333D02*
X160068152Y-88968571D01*
X160068152Y-88968571D02*
X160068152Y-89159047D01*
X160068152Y-89159047D02*
X160115771Y-89254285D01*
X160687200Y-88825714D02*
X160734819Y-88920952D01*
X160734819Y-88920952D02*
X160734819Y-89159047D01*
X160734819Y-89159047D02*
X160687200Y-89254285D01*
X160687200Y-89254285D02*
X160591961Y-89301904D01*
X160591961Y-89301904D02*
X160496723Y-89301904D01*
X160496723Y-89301904D02*
X160401485Y-89254285D01*
X160401485Y-89254285D02*
X160353866Y-89159047D01*
X160353866Y-89159047D02*
X160353866Y-88920952D01*
X160353866Y-88920952D02*
X160306247Y-88825714D01*
X160734819Y-88349523D02*
X160068152Y-88349523D01*
X160258628Y-88349523D02*
X160163390Y-88301904D01*
X160163390Y-88301904D02*
X160115771Y-88254285D01*
X160115771Y-88254285D02*
X160068152Y-88159047D01*
X160068152Y-88159047D02*
X160068152Y-88063809D01*
X160734819Y-87301904D02*
X159734819Y-87301904D01*
X160687200Y-87301904D02*
X160734819Y-87397142D01*
X160734819Y-87397142D02*
X160734819Y-87587618D01*
X160734819Y-87587618D02*
X160687200Y-87682856D01*
X160687200Y-87682856D02*
X160639580Y-87730475D01*
X160639580Y-87730475D02*
X160544342Y-87778094D01*
X160544342Y-87778094D02*
X160258628Y-87778094D01*
X160258628Y-87778094D02*
X160163390Y-87730475D01*
X160163390Y-87730475D02*
X160115771Y-87682856D01*
X160115771Y-87682856D02*
X160068152Y-87587618D01*
X160068152Y-87587618D02*
X160068152Y-87397142D01*
X160068152Y-87397142D02*
X160115771Y-87301904D01*
X160830057Y-87063809D02*
X160830057Y-86301904D01*
X160734819Y-85492380D02*
X160258628Y-85825713D01*
X160734819Y-86063808D02*
X159734819Y-86063808D01*
X159734819Y-86063808D02*
X159734819Y-85682856D01*
X159734819Y-85682856D02*
X159782438Y-85587618D01*
X159782438Y-85587618D02*
X159830057Y-85539999D01*
X159830057Y-85539999D02*
X159925295Y-85492380D01*
X159925295Y-85492380D02*
X160068152Y-85492380D01*
X160068152Y-85492380D02*
X160163390Y-85539999D01*
X160163390Y-85539999D02*
X160211009Y-85587618D01*
X160211009Y-85587618D02*
X160258628Y-85682856D01*
X160258628Y-85682856D02*
X160258628Y-86063808D01*
X133864819Y-91531904D02*
X132864819Y-91531904D01*
X133341009Y-91531904D02*
X133341009Y-90960476D01*
X133864819Y-90960476D02*
X132864819Y-90960476D01*
X132960057Y-90531904D02*
X132912438Y-90484285D01*
X132912438Y-90484285D02*
X132864819Y-90389047D01*
X132864819Y-90389047D02*
X132864819Y-90150952D01*
X132864819Y-90150952D02*
X132912438Y-90055714D01*
X132912438Y-90055714D02*
X132960057Y-90008095D01*
X132960057Y-90008095D02*
X133055295Y-89960476D01*
X133055295Y-89960476D02*
X133150533Y-89960476D01*
X133150533Y-89960476D02*
X133293390Y-90008095D01*
X133293390Y-90008095D02*
X133864819Y-90579523D01*
X133864819Y-90579523D02*
X133864819Y-89960476D01*
X172194980Y-104954819D02*
X171623552Y-104954819D01*
X171909266Y-104954819D02*
X171909266Y-103954819D01*
X171909266Y-103954819D02*
X171814028Y-104097676D01*
X171814028Y-104097676D02*
X171718790Y-104192914D01*
X171718790Y-104192914D02*
X171623552Y-104240533D01*
X172814028Y-103954819D02*
X172909266Y-103954819D01*
X172909266Y-103954819D02*
X173004504Y-104002438D01*
X173004504Y-104002438D02*
X173052123Y-104050057D01*
X173052123Y-104050057D02*
X173099742Y-104145295D01*
X173099742Y-104145295D02*
X173147361Y-104335771D01*
X173147361Y-104335771D02*
X173147361Y-104573866D01*
X173147361Y-104573866D02*
X173099742Y-104764342D01*
X173099742Y-104764342D02*
X173052123Y-104859580D01*
X173052123Y-104859580D02*
X173004504Y-104907200D01*
X173004504Y-104907200D02*
X172909266Y-104954819D01*
X172909266Y-104954819D02*
X172814028Y-104954819D01*
X172814028Y-104954819D02*
X172718790Y-104907200D01*
X172718790Y-104907200D02*
X172671171Y-104859580D01*
X172671171Y-104859580D02*
X172623552Y-104764342D01*
X172623552Y-104764342D02*
X172575933Y-104573866D01*
X172575933Y-104573866D02*
X172575933Y-104335771D01*
X172575933Y-104335771D02*
X172623552Y-104145295D01*
X172623552Y-104145295D02*
X172671171Y-104050057D01*
X172671171Y-104050057D02*
X172718790Y-104002438D01*
X172718790Y-104002438D02*
X172814028Y-103954819D01*
X173766409Y-103954819D02*
X173861647Y-103954819D01*
X173861647Y-103954819D02*
X173956885Y-104002438D01*
X173956885Y-104002438D02*
X174004504Y-104050057D01*
X174004504Y-104050057D02*
X174052123Y-104145295D01*
X174052123Y-104145295D02*
X174099742Y-104335771D01*
X174099742Y-104335771D02*
X174099742Y-104573866D01*
X174099742Y-104573866D02*
X174052123Y-104764342D01*
X174052123Y-104764342D02*
X174004504Y-104859580D01*
X174004504Y-104859580D02*
X173956885Y-104907200D01*
X173956885Y-104907200D02*
X173861647Y-104954819D01*
X173861647Y-104954819D02*
X173766409Y-104954819D01*
X173766409Y-104954819D02*
X173671171Y-104907200D01*
X173671171Y-104907200D02*
X173623552Y-104859580D01*
X173623552Y-104859580D02*
X173575933Y-104764342D01*
X173575933Y-104764342D02*
X173528314Y-104573866D01*
X173528314Y-104573866D02*
X173528314Y-104335771D01*
X173528314Y-104335771D02*
X173575933Y-104145295D01*
X173575933Y-104145295D02*
X173623552Y-104050057D01*
X173623552Y-104050057D02*
X173671171Y-104002438D01*
X173671171Y-104002438D02*
X173766409Y-103954819D01*
X174528314Y-104288152D02*
X174528314Y-104954819D01*
X174528314Y-104383390D02*
X174575933Y-104335771D01*
X174575933Y-104335771D02*
X174671171Y-104288152D01*
X174671171Y-104288152D02*
X174814028Y-104288152D01*
X174814028Y-104288152D02*
X174909266Y-104335771D01*
X174909266Y-104335771D02*
X174956885Y-104431009D01*
X174956885Y-104431009D02*
X174956885Y-104954819D01*
X175766409Y-104431009D02*
X175433076Y-104431009D01*
X175433076Y-104954819D02*
X175433076Y-103954819D01*
X175433076Y-103954819D02*
X175909266Y-103954819D01*
D12*
X173356885Y-106965748D02*
X173328313Y-106994320D01*
X173328313Y-106994320D02*
X173242599Y-107022891D01*
X173242599Y-107022891D02*
X173185456Y-107022891D01*
X173185456Y-107022891D02*
X173099742Y-106994320D01*
X173099742Y-106994320D02*
X173042599Y-106937177D01*
X173042599Y-106937177D02*
X173014028Y-106880034D01*
X173014028Y-106880034D02*
X172985456Y-106765748D01*
X172985456Y-106765748D02*
X172985456Y-106680034D01*
X172985456Y-106680034D02*
X173014028Y-106565748D01*
X173014028Y-106565748D02*
X173042599Y-106508605D01*
X173042599Y-106508605D02*
X173099742Y-106451462D01*
X173099742Y-106451462D02*
X173185456Y-106422891D01*
X173185456Y-106422891D02*
X173242599Y-106422891D01*
X173242599Y-106422891D02*
X173328313Y-106451462D01*
X173328313Y-106451462D02*
X173356885Y-106480034D01*
X173928313Y-107022891D02*
X173585456Y-107022891D01*
X173756885Y-107022891D02*
X173756885Y-106422891D01*
X173756885Y-106422891D02*
X173699742Y-106508605D01*
X173699742Y-106508605D02*
X173642599Y-106565748D01*
X173642599Y-106565748D02*
X173585456Y-106594320D01*
X174271171Y-106680034D02*
X174214028Y-106651462D01*
X174214028Y-106651462D02*
X174185457Y-106622891D01*
X174185457Y-106622891D02*
X174156885Y-106565748D01*
X174156885Y-106565748D02*
X174156885Y-106537177D01*
X174156885Y-106537177D02*
X174185457Y-106480034D01*
X174185457Y-106480034D02*
X174214028Y-106451462D01*
X174214028Y-106451462D02*
X174271171Y-106422891D01*
X174271171Y-106422891D02*
X174385457Y-106422891D01*
X174385457Y-106422891D02*
X174442600Y-106451462D01*
X174442600Y-106451462D02*
X174471171Y-106480034D01*
X174471171Y-106480034D02*
X174499742Y-106537177D01*
X174499742Y-106537177D02*
X174499742Y-106565748D01*
X174499742Y-106565748D02*
X174471171Y-106622891D01*
X174471171Y-106622891D02*
X174442600Y-106651462D01*
X174442600Y-106651462D02*
X174385457Y-106680034D01*
X174385457Y-106680034D02*
X174271171Y-106680034D01*
X174271171Y-106680034D02*
X174214028Y-106708605D01*
X174214028Y-106708605D02*
X174185457Y-106737177D01*
X174185457Y-106737177D02*
X174156885Y-106794320D01*
X174156885Y-106794320D02*
X174156885Y-106908605D01*
X174156885Y-106908605D02*
X174185457Y-106965748D01*
X174185457Y-106965748D02*
X174214028Y-106994320D01*
X174214028Y-106994320D02*
X174271171Y-107022891D01*
X174271171Y-107022891D02*
X174385457Y-107022891D01*
X174385457Y-107022891D02*
X174442600Y-106994320D01*
X174442600Y-106994320D02*
X174471171Y-106965748D01*
X174471171Y-106965748D02*
X174499742Y-106908605D01*
X174499742Y-106908605D02*
X174499742Y-106794320D01*
X174499742Y-106794320D02*
X174471171Y-106737177D01*
X174471171Y-106737177D02*
X174442600Y-106708605D01*
X174442600Y-106708605D02*
X174385457Y-106680034D01*
%TO.C,R7*%
D13*
X137500000Y-68000000D02*
X137500000Y-70540000D01*
X138750000Y-68000000D02*
G75*
G02*
X136250000Y-68000000I-1250000J0D01*
G01*
X136250000Y-68000000D02*
G75*
G02*
X138750000Y-68000000I1250000J0D01*
G01*
%TO.C,R8*%
X132500000Y-68000000D02*
X132500000Y-70540000D01*
X133750000Y-68000000D02*
G75*
G02*
X131250000Y-68000000I-1250000J0D01*
G01*
X131250000Y-68000000D02*
G75*
G02*
X133750000Y-68000000I1250000J0D01*
G01*
%TO.C,D3*%
X117000000Y-107761190D02*
X117000000Y-105428810D01*
X117000000Y-107761190D02*
G75*
G02*
X117000000Y-105428810I-1500000J1166190D01*
G01*
X117000000Y-106595000D02*
G75*
G02*
X114000000Y-106595000I-1500000J0D01*
G01*
X114000000Y-106595000D02*
G75*
G02*
X117000000Y-106595000I1500000J0D01*
G01*
%TO.C,R4*%
X154052700Y-104470200D02*
X156592700Y-104470200D01*
X155302700Y-104470200D02*
G75*
G02*
X152802700Y-104470200I-1250000J0D01*
G01*
X152802700Y-104470200D02*
G75*
G02*
X155302700Y-104470200I1250000J0D01*
G01*
%TO.C,C20*%
X171671800Y-71339200D02*
X174671800Y-71339200D01*
X174671800Y-73339200D01*
X171671800Y-73339200D01*
X171671800Y-71339200D01*
%TO.C,SW4*%
X170492600Y-61000000D02*
X176492600Y-61000000D01*
X170492600Y-67000000D02*
X170492600Y-61000000D01*
X176492600Y-61000000D02*
X176492600Y-64000000D01*
X176492600Y-64000000D02*
X176492600Y-67000000D01*
X176492600Y-67000000D02*
X170492600Y-67000000D01*
X175508164Y-64000000D02*
G75*
G02*
X171477036Y-64000000I-2015564J0D01*
G01*
X171477036Y-64000000D02*
G75*
G02*
X175508164Y-64000000I2015564J0D01*
G01*
%TO.C,R5*%
X154047700Y-100470200D02*
X156587700Y-100470200D01*
X155297700Y-100470200D02*
G75*
G02*
X152797700Y-100470200I-1250000J0D01*
G01*
X152797700Y-100470200D02*
G75*
G02*
X155297700Y-100470200I1250000J0D01*
G01*
%TO.C,H1*%
X108010000Y-75230000D02*
X158810000Y-75230000D01*
X108010000Y-79040000D02*
X108010000Y-75230000D01*
X109280000Y-80310000D02*
X108010000Y-79040000D01*
X158810000Y-75230000D02*
X158810000Y-80310000D01*
X158810000Y-80310000D02*
X109280000Y-80310000D01*
%TO.C,C22*%
X171357100Y-114838718D02*
X171857100Y-114838718D01*
X171607100Y-115088718D02*
X171607100Y-114588718D01*
X175194600Y-112955113D02*
G75*
G02*
X170194600Y-112955113I-2500000J0D01*
G01*
X170194600Y-112955113D02*
G75*
G02*
X175194600Y-112955113I2500000J0D01*
G01*
%TO.C,R10*%
X108000000Y-100090000D02*
X108000000Y-97550000D01*
X109250000Y-100090000D02*
G75*
G02*
X106750000Y-100090000I-1250000J0D01*
G01*
X106750000Y-100090000D02*
G75*
G02*
X109250000Y-100090000I1250000J0D01*
G01*
%TO.C,R12*%
X116100000Y-100045000D02*
X116100000Y-97505000D01*
X117350000Y-100045000D02*
G75*
G02*
X114850000Y-100045000I-1250000J0D01*
G01*
X114850000Y-100045000D02*
G75*
G02*
X117350000Y-100045000I1250000J0D01*
G01*
%TO.C,D4*%
X124770000Y-107761190D02*
X124770000Y-105428810D01*
X124770000Y-107761190D02*
G75*
G02*
X124770000Y-105428810I-1500000J1166190D01*
G01*
X124770000Y-106595000D02*
G75*
G02*
X121770000Y-106595000I-1500000J0D01*
G01*
X121770000Y-106595000D02*
G75*
G02*
X124770000Y-106595000I1500000J0D01*
G01*
%TO.C,J2*%
X149707600Y-66370200D02*
X159232600Y-66370200D01*
X149707600Y-68910200D02*
X149707600Y-66370200D01*
X159232600Y-66370200D02*
X159867600Y-67005200D01*
X159867600Y-67005200D02*
X159867600Y-68910200D01*
X159867600Y-68910200D02*
X149707600Y-68910200D01*
%TO.C,J3*%
X144650000Y-110971800D02*
X154810000Y-110971800D01*
X144650000Y-112876800D02*
X144650000Y-110971800D01*
X145285000Y-113511800D02*
X144650000Y-112876800D01*
X154810000Y-110971800D02*
X154810000Y-113511800D01*
X154810000Y-113511800D02*
X145285000Y-113511800D01*
%TO.C,C19*%
X171992600Y-88509600D02*
X174992600Y-88509600D01*
X174992600Y-90509600D01*
X171992600Y-90509600D01*
X171992600Y-88509600D01*
%TO.C,SW3*%
X170492600Y-78500000D02*
X176492600Y-78500000D01*
X170492600Y-84500000D02*
X170492600Y-78500000D01*
X176492600Y-78500000D02*
X176492600Y-81500000D01*
X176492600Y-81500000D02*
X176492600Y-84500000D01*
X176492600Y-84500000D02*
X170492600Y-84500000D01*
X175508164Y-81500000D02*
G75*
G02*
X171477036Y-81500000I-2015564J0D01*
G01*
X171477036Y-81500000D02*
G75*
G02*
X175508164Y-81500000I2015564J0D01*
G01*
%TO.C,C21*%
X162568700Y-115060605D02*
X163068700Y-115060605D01*
X162818700Y-115310605D02*
X162818700Y-114810605D01*
X166406200Y-113177000D02*
G75*
G02*
X161406200Y-113177000I-2500000J0D01*
G01*
X161406200Y-113177000D02*
G75*
G02*
X166406200Y-113177000I2500000J0D01*
G01*
%TO.C,SW2*%
X170742600Y-95750000D02*
X176742600Y-95750000D01*
X170742600Y-101750000D02*
X170742600Y-95750000D01*
X176742600Y-95750000D02*
X176742600Y-98750000D01*
X176742600Y-98750000D02*
X176742600Y-101750000D01*
X176742600Y-101750000D02*
X170742600Y-101750000D01*
X175758164Y-98750000D02*
G75*
G02*
X171727036Y-98750000I-2015564J0D01*
G01*
X171727036Y-98750000D02*
G75*
G02*
X175758164Y-98750000I2015564J0D01*
G01*
%TO.C,R6*%
X143000000Y-68000000D02*
X143000000Y-70540000D01*
X144250000Y-68000000D02*
G75*
G02*
X141750000Y-68000000I-1250000J0D01*
G01*
X141750000Y-68000000D02*
G75*
G02*
X144250000Y-68000000I1250000J0D01*
G01*
%TO.C,R9*%
X127500000Y-68000000D02*
X127500000Y-70540000D01*
X128750000Y-68000000D02*
G75*
G02*
X126250000Y-68000000I-1250000J0D01*
G01*
X126250000Y-68000000D02*
G75*
G02*
X128750000Y-68000000I1250000J0D01*
G01*
%TO.C,D2*%
X109000000Y-107761190D02*
X109000000Y-105428810D01*
X109000000Y-107761190D02*
G75*
G02*
X109000000Y-105428810I-1500000J1166190D01*
G01*
X109000000Y-106595000D02*
G75*
G02*
X106000000Y-106595000I-1500000J0D01*
G01*
X106000000Y-106595000D02*
G75*
G02*
X109000000Y-106595000I1500000J0D01*
G01*
%TO.C,LS1*%
X159613600Y-100279200D02*
X160248600Y-99644200D01*
X159613600Y-107264200D02*
X159613600Y-100279200D01*
X160248600Y-99644200D02*
X162153600Y-99644200D01*
X162153600Y-99644200D02*
X162153600Y-107264200D01*
X162153600Y-107264200D02*
X159613600Y-107264200D01*
%TO.C,R11*%
X112000000Y-100045000D02*
X112000000Y-97505000D01*
X113250000Y-100045000D02*
G75*
G02*
X110750000Y-100045000I-1250000J0D01*
G01*
X110750000Y-100045000D02*
G75*
G02*
X113250000Y-100045000I1250000J0D01*
G01*
%TO.C,J5*%
X127736600Y-97180400D02*
X132816600Y-97180400D01*
X127736600Y-107340400D02*
X127736600Y-97180400D01*
X131546600Y-107340400D02*
X127736600Y-107340400D01*
X132816600Y-97180400D02*
X132816600Y-106070400D01*
X132816600Y-106070400D02*
X131546600Y-107340400D01*
%TO.C,J4*%
X105460800Y-67157600D02*
X114985800Y-67157600D01*
X105460800Y-69697600D02*
X105460800Y-67157600D01*
X114985800Y-67157600D02*
X115620800Y-67792600D01*
X115620800Y-67792600D02*
X115620800Y-69697600D01*
X115620800Y-69697600D02*
X105460800Y-69697600D01*
%TO.C,H2*%
X108010000Y-88230000D02*
X158810000Y-88230000D01*
X108010000Y-92040000D02*
X108010000Y-88230000D01*
X109280000Y-93310000D02*
X108010000Y-92040000D01*
X158810000Y-88230000D02*
X158810000Y-93310000D01*
X158810000Y-93310000D02*
X109280000Y-93310000D01*
%TO.C,C18*%
X172242600Y-105750000D02*
X175242600Y-105750000D01*
X175242600Y-107750000D01*
X172242600Y-107750000D01*
X172242600Y-105750000D01*
%TD*%
M02*
